<svg width="104" height="31" viewBox="0 0 104 31" fill="none" xmlns="http://www.w3.org/2000/svg">
<path d="M7.36322 14.5602H19.4388V20.0593H7.36322V14.5602ZM7.8834 24.8152H21.4824V30.5H0.600894V4.49106H20.9993V10.1759H7.8834V24.8152Z" fill="#98BE00"/>
<path d="M25.2304 30.5V10.3616H31.9556V16.2322L30.9524 14.5602C31.5469 13.0492 32.5129 11.9222 33.8505 11.1791C35.1881 10.4112 36.8106 10.0272 38.7179 10.0272V16.3809C38.3959 16.3313 38.111 16.3065 37.8633 16.3065C37.6404 16.2818 37.3927 16.2694 37.1202 16.2694C35.6835 16.2694 34.5193 16.6657 33.6276 17.4584C32.7359 18.2263 32.29 19.4895 32.29 21.2482V30.5H25.2304ZM41.6312 30.5V10.3616H48.6907V30.5H41.6312ZM45.1609 8.13231C43.8729 8.13231 42.8325 7.77314 42.0399 7.0548C41.2472 6.33646 40.8509 5.44472 40.8509 4.37959C40.8509 3.31446 41.2472 2.42273 42.0399 1.70439C42.8325 0.986045 43.8729 0.626874 45.1609 0.626874C46.449 0.626874 47.4894 0.97366 48.282 1.66723C49.0747 2.33603 49.471 3.203 49.471 4.26813C49.471 5.38279 49.0747 6.31169 48.282 7.0548C47.5141 7.77314 46.4738 8.13231 45.1609 8.13231ZM59.1492 26.7844L59.3349 18.3501L67.5463 10.3616H75.9064L66.8032 19.762L63.1991 22.6602L59.1492 26.7844ZM53.2786 30.5V2.93052H60.3381V30.5H53.2786ZM68.0665 30.5L61.8987 22.7716L66.283 17.3469L76.6123 30.5H68.0665ZM87.7422 30.8344C85.166 30.8344 83.1596 30.2028 81.723 28.9395C80.2863 27.6514 79.5679 25.7193 79.5679 23.1432V5.86582H86.6275V23.0689C86.6275 23.7872 86.8257 24.3569 87.222 24.778C87.6183 25.1744 88.1261 25.3725 88.7454 25.3725C89.5876 25.3725 90.3059 25.162 90.9004 24.7409L92.6467 29.6826C92.0522 30.0789 91.3215 30.3638 90.4545 30.5372C89.5876 30.7353 88.6834 30.8344 87.7422 30.8344ZM76.6326 16.3809V11.1048H91.2348V16.3809H76.6326ZM95.3689 30.5V10.3616H102.429V30.5H95.3689ZM98.8987 8.13231C97.6107 8.13231 96.5703 7.77314 95.7777 7.0548C94.985 6.33646 94.5887 5.44472 94.5887 4.37959C94.5887 3.31446 94.985 2.42273 95.7777 1.70439C96.5703 0.986045 97.6107 0.626874 98.8987 0.626874C100.187 0.626874 101.227 0.97366 102.02 1.66723C102.812 2.33603 103.209 3.203 103.209 4.26813C103.209 5.38279 102.812 6.31169 102.02 7.0548C101.252 7.77314 100.212 8.13231 98.8987 8.13231Z" fill="#161616"/>
</svg>
