<svg width="490" height="210" viewBox="0 0 490 210" fill="none" xmlns="http://www.w3.org/2000/svg">
<rect x="0.5" y="0.5" width="489" height="209" rx="14.5" stroke="#D3D3D3"/>
<path opacity="0.2" d="M405.738 92.6012C402.29 92.6012 399.08 93.247 396.106 94.5387C393.133 95.8303 390.504 97.5956 388.221 99.8344C385.937 102.073 384.148 104.721 382.856 107.778C381.563 110.835 380.916 114.043 380.916 117.401C380.916 121.362 380.033 125.086 378.266 128.574C376.499 132.061 374.022 134.989 370.833 137.357C373.634 138.778 376.155 140.521 378.395 142.588C380.636 144.655 382.575 146.979 384.213 149.563C385.85 152.146 387.079 154.902 387.897 157.829C388.716 160.757 389.147 163.814 389.19 167H380.916C380.916 163.599 380.27 160.391 378.977 157.377C377.684 154.363 375.918 151.737 373.677 149.498C371.436 147.259 368.786 145.473 365.726 144.138C362.667 142.803 359.456 142.157 356.095 142.2C352.648 142.2 349.437 142.846 346.464 144.138C343.491 145.43 340.862 147.195 338.578 149.434C336.294 151.672 334.506 154.32 333.213 157.377C331.92 160.434 331.274 163.642 331.274 167H323C323 163.857 323.431 160.822 324.293 157.894C325.155 154.966 326.383 152.211 327.977 149.627C329.572 147.044 331.489 144.719 333.73 142.652C335.971 140.586 338.513 138.821 341.357 137.357C338.169 134.989 335.691 132.061 333.924 128.574C332.157 125.086 331.274 121.362 331.274 117.401C331.274 113.999 331.92 110.792 333.213 107.778C334.506 104.764 336.273 102.138 338.513 99.899C340.754 97.6602 343.383 95.8734 346.399 94.5387C349.416 93.204 352.648 92.5582 356.095 92.6012C360.06 92.6012 363.787 93.4838 367.278 95.2491C370.768 97.0143 373.698 99.49 376.068 102.676C377.706 99.4469 379.796 96.5623 382.338 94.022C384.881 91.4818 387.768 89.3936 391 87.7575C387.811 85.3895 385.333 82.4618 383.567 78.9743C381.8 75.4869 380.916 71.7627 380.916 67.8016C380.916 64.4003 381.563 61.1927 382.856 58.1789C384.148 55.165 385.915 52.5387 388.156 50.2998C390.397 48.061 393.025 46.2742 396.042 44.9395C399.058 43.6048 402.29 42.959 405.738 43.002C409.142 43.002 412.352 43.6478 415.369 44.9395C418.385 46.2311 421.014 47.9964 423.255 50.2352C425.496 52.4741 427.284 55.122 428.62 58.1789C429.956 61.2357 430.602 64.4433 430.559 67.8016C430.559 71.7627 429.676 75.4869 427.909 78.9743C426.142 82.4618 423.664 85.3895 420.475 87.7575C423.276 89.1783 425.797 90.9221 428.038 92.9887C430.279 95.0553 432.218 97.3803 433.856 99.9636C435.493 102.547 436.721 105.302 437.54 108.23C438.359 111.158 438.79 114.215 438.833 117.401H430.559C430.559 113.999 429.913 110.792 428.62 107.778C427.327 104.764 425.56 102.138 423.319 99.899C421.079 97.6602 418.428 95.8734 415.369 94.5387C412.309 93.204 409.099 92.5582 405.738 92.6012ZM389.19 67.8016C389.19 70.0835 389.621 72.2147 390.483 74.1953C391.345 76.1758 392.53 77.941 394.038 79.491C395.546 81.041 397.292 82.225 399.274 83.043C401.256 83.8611 403.411 84.2916 405.738 84.3347C408.022 84.3347 410.155 83.9041 412.137 83.043C414.119 82.1819 415.886 80.9979 417.437 79.491C418.989 77.9841 420.174 76.2404 420.992 74.2598C421.811 72.2793 422.242 70.1266 422.285 67.8016C422.285 65.5197 421.854 63.3885 420.992 61.408C420.131 59.4274 418.946 57.6622 417.437 56.1122C415.929 54.5622 414.184 53.3782 412.202 52.5602C410.219 51.7422 408.065 51.3116 405.738 51.2685C403.454 51.2685 401.321 51.6991 399.338 52.5602C397.356 53.4213 395.589 54.6053 394.038 56.1122C392.487 57.6191 391.302 59.3629 390.483 61.3434C389.664 63.3239 389.233 65.4767 389.19 67.8016ZM356.095 133.934C358.379 133.934 360.512 133.503 362.494 132.642C364.477 131.781 366.243 130.597 367.795 129.09C369.346 127.583 370.531 125.84 371.35 123.859C372.169 121.879 372.6 119.726 372.643 117.401C372.643 115.119 372.212 112.988 371.35 111.007C370.488 109.027 369.303 107.261 367.795 105.711C366.286 104.161 364.541 102.977 362.559 102.159C360.577 101.341 358.422 100.911 356.095 100.868C353.811 100.868 351.678 101.298 349.696 102.159C347.714 103.02 345.947 104.204 344.395 105.711C342.844 107.218 341.659 108.962 340.84 110.943C340.022 112.923 339.591 115.076 339.548 117.401C339.548 119.683 339.978 121.814 340.84 123.794C341.702 125.775 342.887 127.54 344.395 129.09C345.904 130.64 347.649 131.824 349.631 132.642C351.613 133.46 353.768 133.891 356.095 133.934ZM455.38 150.467H438.833V167H430.559V150.467H414.011V142.2H430.559V125.667H438.833V142.2H455.38V150.467Z" fill="#98BE00"/>
<path d="M36.256 63V46.2H39.376V63H36.256ZM50.9041 50.04C51.9281 50.04 52.8401 50.24 53.6401 50.64C54.4561 51.04 55.0961 51.656 55.5601 52.488C56.0241 53.304 56.2561 54.36 56.2561 55.656V63H53.2561V56.04C53.2561 54.904 52.9841 54.056 52.4401 53.496C51.9121 52.936 51.1681 52.656 50.2081 52.656C49.5041 52.656 48.8801 52.8 48.3361 53.088C47.7921 53.376 47.3681 53.808 47.0641 54.384C46.7761 54.944 46.6321 55.656 46.6321 56.52V63H43.6321V50.184H46.4881V53.64L45.9841 52.584C46.4321 51.768 47.0801 51.144 47.9281 50.712C48.7921 50.264 49.7841 50.04 50.9041 50.04ZM64.8858 63.168C63.4778 63.168 62.3898 62.808 61.6217 62.088C60.8538 61.352 60.4698 60.272 60.4698 58.848V47.352H63.4698V58.776C63.4698 59.384 63.6218 59.856 63.9258 60.192C64.2458 60.528 64.6858 60.696 65.2458 60.696C65.9178 60.696 66.4778 60.52 66.9258 60.168L67.7658 62.304C67.4138 62.592 66.9818 62.808 66.4698 62.952C65.9578 63.096 65.4298 63.168 64.8858 63.168ZM58.3578 52.68V50.28H66.9018V52.68H58.3578ZM75.8358 63.168C74.4118 63.168 73.1638 62.888 72.0918 62.328C71.0358 61.752 70.2118 60.968 69.6198 59.976C69.0438 58.984 68.7558 57.856 68.7558 56.592C68.7558 55.312 69.0358 54.184 69.5958 53.208C70.1718 52.216 70.9558 51.44 71.9478 50.88C72.9558 50.32 74.0998 50.04 75.3798 50.04C76.6278 50.04 77.7398 50.312 78.7158 50.856C79.6918 51.4 80.4598 52.168 81.0198 53.16C81.5798 54.152 81.8598 55.32 81.8598 56.664C81.8598 56.792 81.8518 56.936 81.8358 57.096C81.8358 57.256 81.8278 57.408 81.8118 57.552H71.1318V55.56H80.2278L79.0518 56.184C79.0678 55.448 78.9158 54.8 78.5958 54.24C78.2758 53.68 77.8358 53.24 77.2758 52.92C76.7318 52.6 76.0998 52.44 75.3798 52.44C74.6438 52.44 73.9958 52.6 73.4358 52.92C72.8918 53.24 72.4598 53.688 72.1398 54.264C71.8358 54.824 71.6838 55.488 71.6838 56.256V56.736C71.6838 57.504 71.8598 58.184 72.2118 58.776C72.5638 59.368 73.0598 59.824 73.6998 60.144C74.3398 60.464 75.0758 60.624 75.9078 60.624C76.6278 60.624 77.2758 60.512 77.8518 60.288C78.4278 60.064 78.9398 59.712 79.3878 59.232L80.9958 61.08C80.4198 61.752 79.6918 62.272 78.8118 62.64C77.9478 62.992 76.9558 63.168 75.8358 63.168ZM84.7414 63V50.184H87.5974V53.712L87.2614 52.68C87.6454 51.816 88.2454 51.16 89.0614 50.712C89.8934 50.264 90.9254 50.04 92.1574 50.04V52.896C92.0294 52.864 91.9094 52.848 91.7974 52.848C91.6854 52.832 91.5734 52.824 91.4614 52.824C90.3254 52.824 89.4214 53.16 88.7494 53.832C88.0774 54.488 87.7414 55.472 87.7414 56.784V63H84.7414ZM100.609 63.168C99.1852 63.168 97.9372 62.888 96.8652 62.328C95.8092 61.752 94.9852 60.968 94.3932 59.976C93.8172 58.984 93.5292 57.856 93.5292 56.592C93.5292 55.312 93.8092 54.184 94.3692 53.208C94.9452 52.216 95.7292 51.44 96.7212 50.88C97.7292 50.32 98.8732 50.04 100.153 50.04C101.401 50.04 102.513 50.312 103.489 50.856C104.465 51.4 105.233 52.168 105.793 53.16C106.353 54.152 106.633 55.32 106.633 56.664C106.633 56.792 106.625 56.936 106.609 57.096C106.609 57.256 106.601 57.408 106.585 57.552H95.9052V55.56H105.001L103.825 56.184C103.841 55.448 103.689 54.8 103.369 54.24C103.049 53.68 102.609 53.24 102.049 52.92C101.505 52.6 100.873 52.44 100.153 52.44C99.4172 52.44 98.7692 52.6 98.2092 52.92C97.6652 53.24 97.2332 53.688 96.9132 54.264C96.6092 54.824 96.4572 55.488 96.4572 56.256V56.736C96.4572 57.504 96.6332 58.184 96.9852 58.776C97.3372 59.368 97.8332 59.824 98.4732 60.144C99.1132 60.464 99.8492 60.624 100.681 60.624C101.401 60.624 102.049 60.512 102.625 60.288C103.201 60.064 103.713 59.712 104.161 59.232L105.769 61.08C105.193 61.752 104.465 62.272 103.585 62.64C102.721 62.992 101.729 63.168 100.609 63.168ZM113.475 63.168C112.403 63.168 111.371 63.032 110.379 62.76C109.403 62.472 108.627 62.128 108.051 61.728L109.203 59.448C109.779 59.816 110.467 60.12 111.267 60.36C112.067 60.6 112.867 60.72 113.667 60.72C114.611 60.72 115.291 60.592 115.707 60.336C116.139 60.08 116.355 59.736 116.355 59.304C116.355 58.952 116.211 58.688 115.923 58.512C115.635 58.32 115.259 58.176 114.795 58.08C114.331 57.984 113.811 57.896 113.235 57.816C112.675 57.736 112.107 57.632 111.531 57.504C110.971 57.36 110.459 57.16 109.995 56.904C109.531 56.632 109.155 56.272 108.867 55.824C108.579 55.376 108.435 54.784 108.435 54.048C108.435 53.232 108.667 52.528 109.131 51.936C109.595 51.328 110.243 50.864 111.075 50.544C111.923 50.208 112.923 50.04 114.075 50.04C114.939 50.04 115.811 50.136 116.691 50.328C117.571 50.52 118.299 50.792 118.875 51.144L117.723 53.424C117.115 53.056 116.499 52.808 115.875 52.68C115.267 52.536 114.659 52.464 114.051 52.464C113.139 52.464 112.459 52.6 112.011 52.872C111.579 53.144 111.363 53.488 111.363 53.904C111.363 54.288 111.507 54.576 111.795 54.768C112.083 54.96 112.459 55.112 112.923 55.224C113.387 55.336 113.899 55.432 114.459 55.512C115.035 55.576 115.603 55.68 116.163 55.824C116.723 55.968 117.235 56.168 117.699 56.424C118.179 56.664 118.563 57.008 118.851 57.456C119.139 57.904 119.283 58.488 119.283 59.208C119.283 60.008 119.043 60.704 118.563 61.296C118.099 61.888 117.435 62.352 116.571 62.688C115.707 63.008 114.675 63.168 113.475 63.168ZM126.69 63.168C125.282 63.168 124.194 62.808 123.426 62.088C122.658 61.352 122.274 60.272 122.274 58.848V47.352H125.274V58.776C125.274 59.384 125.426 59.856 125.73 60.192C126.05 60.528 126.49 60.696 127.05 60.696C127.722 60.696 128.282 60.52 128.73 60.168L129.57 62.304C129.218 62.592 128.786 62.808 128.274 62.952C127.762 63.096 127.234 63.168 126.69 63.168ZM120.162 52.68V50.28H128.706V52.68H120.162ZM137.64 63.168C136.216 63.168 134.968 62.888 133.896 62.328C132.84 61.752 132.016 60.968 131.424 59.976C130.848 58.984 130.56 57.856 130.56 56.592C130.56 55.312 130.84 54.184 131.4 53.208C131.976 52.216 132.76 51.44 133.752 50.88C134.76 50.32 135.904 50.04 137.184 50.04C138.432 50.04 139.544 50.312 140.52 50.856C141.496 51.4 142.264 52.168 142.824 53.16C143.384 54.152 143.664 55.32 143.664 56.664C143.664 56.792 143.656 56.936 143.64 57.096C143.64 57.256 143.632 57.408 143.616 57.552H132.936V55.56H142.032L140.856 56.184C140.872 55.448 140.72 54.8 140.4 54.24C140.08 53.68 139.64 53.24 139.08 52.92C138.536 52.6 137.904 52.44 137.184 52.44C136.448 52.44 135.8 52.6 135.24 52.92C134.696 53.24 134.264 53.688 133.944 54.264C133.64 54.824 133.488 55.488 133.488 56.256V56.736C133.488 57.504 133.664 58.184 134.016 58.776C134.368 59.368 134.864 59.824 135.504 60.144C136.144 60.464 136.88 60.624 137.712 60.624C138.432 60.624 139.08 60.512 139.656 60.288C140.232 60.064 140.744 59.712 141.192 59.232L142.8 61.08C142.224 61.752 141.496 62.272 140.616 62.64C139.752 62.992 138.76 63.168 137.64 63.168ZM151.97 63.168C150.738 63.168 149.626 62.896 148.634 62.352C147.658 61.792 146.89 61.024 146.33 60.048C145.77 59.072 145.49 57.92 145.49 56.592C145.49 55.264 145.77 54.112 146.33 53.136C146.89 52.16 147.658 51.4 148.634 50.856C149.626 50.312 150.738 50.04 151.97 50.04C153.042 50.04 154.002 50.28 154.85 50.76C155.698 51.224 156.37 51.936 156.866 52.896C157.362 53.856 157.61 55.088 157.61 56.592C157.61 58.08 157.37 59.312 156.89 60.288C156.41 61.248 155.746 61.968 154.898 62.448C154.05 62.928 153.074 63.168 151.97 63.168ZM152.33 60.6C153.05 60.6 153.69 60.44 154.25 60.12C154.826 59.8 155.282 59.336 155.618 58.728C155.97 58.12 156.146 57.408 156.146 56.592C156.146 55.76 155.97 55.048 155.618 54.456C155.282 53.848 154.826 53.384 154.25 53.064C153.69 52.744 153.05 52.584 152.33 52.584C151.61 52.584 150.962 52.744 150.386 53.064C149.826 53.384 149.37 53.848 149.018 54.456C148.682 55.048 148.514 55.76 148.514 56.592C148.514 57.408 148.682 58.12 149.018 58.728C149.37 59.336 149.826 59.8 150.386 60.12C150.962 60.44 151.61 60.6 152.33 60.6ZM156.218 63V59.976L156.338 56.568L156.098 53.16V45.192H159.074V63H156.218ZM169.656 63V50.184H172.656V63H169.656ZM171.168 48.072C170.608 48.072 170.144 47.896 169.776 47.544C169.424 47.192 169.248 46.768 169.248 46.272C169.248 45.76 169.424 45.336 169.776 45C170.144 44.648 170.608 44.472 171.168 44.472C171.728 44.472 172.184 44.64 172.536 44.976C172.904 45.296 173.088 45.704 173.088 46.2C173.088 46.728 172.912 47.176 172.56 47.544C172.208 47.896 171.744 48.072 171.168 48.072ZM183.865 50.04C184.889 50.04 185.801 50.24 186.601 50.64C187.417 51.04 188.057 51.656 188.521 52.488C188.985 53.304 189.217 54.36 189.217 55.656V63H186.217V56.04C186.217 54.904 185.945 54.056 185.401 53.496C184.873 52.936 184.129 52.656 183.169 52.656C182.465 52.656 181.841 52.8 181.297 53.088C180.753 53.376 180.329 53.808 180.025 54.384C179.737 54.944 179.593 55.656 179.593 56.52V63H176.593V50.184H179.449V53.64L178.945 52.584C179.393 51.768 180.041 51.144 180.889 50.712C181.753 50.264 182.745 50.04 183.865 50.04ZM206.76 63.168C205.672 63.168 204.704 62.928 203.855 62.448C203.008 61.968 202.336 61.248 201.84 60.288C201.36 59.312 201.12 58.08 201.12 56.592C201.12 55.088 201.368 53.856 201.864 52.896C202.376 51.936 203.056 51.224 203.904 50.76C204.768 50.28 205.72 50.04 206.76 50.04C208.024 50.04 209.136 50.312 210.096 50.856C211.072 51.4 211.84 52.16 212.4 53.136C212.976 54.112 213.264 55.264 213.264 56.592C213.264 57.92 212.976 59.072 212.4 60.048C211.84 61.024 211.072 61.792 210.096 62.352C209.136 62.896 208.024 63.168 206.76 63.168ZM199.656 63V45.192H202.656V53.16L202.416 56.568L202.512 59.976V63H199.656ZM206.424 60.6C207.144 60.6 207.784 60.44 208.344 60.12C208.92 59.8 209.376 59.336 209.712 58.728C210.048 58.12 210.216 57.408 210.216 56.592C210.216 55.76 210.048 55.048 209.712 54.456C209.376 53.848 208.92 53.384 208.344 53.064C207.784 52.744 207.144 52.584 206.424 52.584C205.704 52.584 205.056 52.744 204.48 53.064C203.904 53.384 203.448 53.848 203.112 54.456C202.776 55.048 202.608 55.76 202.608 56.592C202.608 57.408 202.776 58.12 203.112 58.728C203.448 59.336 203.904 59.8 204.48 60.12C205.056 60.44 205.704 60.6 206.424 60.6ZM222.133 63.168C220.709 63.168 219.461 62.888 218.389 62.328C217.333 61.752 216.509 60.968 215.917 59.976C215.341 58.984 215.053 57.856 215.053 56.592C215.053 55.312 215.333 54.184 215.893 53.208C216.469 52.216 217.253 51.44 218.245 50.88C219.253 50.32 220.397 50.04 221.677 50.04C222.925 50.04 224.037 50.312 225.013 50.856C225.989 51.4 226.757 52.168 227.317 53.16C227.877 54.152 228.157 55.32 228.157 56.664C228.157 56.792 228.149 56.936 228.133 57.096C228.133 57.256 228.125 57.408 228.109 57.552H217.429V55.56H226.525L225.349 56.184C225.365 55.448 225.213 54.8 224.893 54.24C224.573 53.68 224.133 53.24 223.573 52.92C223.029 52.6 222.397 52.44 221.677 52.44C220.941 52.44 220.293 52.6 219.733 52.92C219.189 53.24 218.757 53.688 218.437 54.264C218.133 54.824 217.981 55.488 217.981 56.256V56.736C217.981 57.504 218.157 58.184 218.509 58.776C218.861 59.368 219.357 59.824 219.997 60.144C220.637 60.464 221.373 60.624 222.205 60.624C222.925 60.624 223.573 60.512 224.149 60.288C224.725 60.064 225.237 59.712 225.685 59.232L227.293 61.08C226.717 61.752 225.989 62.272 225.109 62.64C224.245 62.992 223.253 63.168 222.133 63.168ZM236.918 63.168C235.574 63.168 234.374 62.888 233.318 62.328C232.278 61.752 231.462 60.968 230.87 59.976C230.278 58.984 229.982 57.856 229.982 56.592C229.982 55.312 230.278 54.184 230.87 53.208C231.462 52.216 232.278 51.44 233.318 50.88C234.374 50.32 235.574 50.04 236.918 50.04C238.166 50.04 239.262 50.296 240.206 50.808C241.166 51.304 241.894 52.04 242.39 53.016L240.086 54.36C239.702 53.752 239.23 53.304 238.67 53.016C238.126 52.728 237.534 52.584 236.894 52.584C236.158 52.584 235.494 52.744 234.902 53.064C234.31 53.384 233.846 53.848 233.51 54.456C233.174 55.048 233.006 55.76 233.006 56.592C233.006 57.424 233.174 58.144 233.51 58.752C233.846 59.344 234.31 59.8 234.902 60.12C235.494 60.44 236.158 60.6 236.894 60.6C237.534 60.6 238.126 60.456 238.67 60.168C239.23 59.88 239.702 59.432 240.086 58.824L242.39 60.168C241.894 61.128 241.166 61.872 240.206 62.4C239.262 62.912 238.166 63.168 236.918 63.168ZM250.556 63.168C249.244 63.168 248.076 62.888 247.052 62.328C246.028 61.752 245.22 60.968 244.628 59.976C244.036 58.984 243.74 57.856 243.74 56.592C243.74 55.312 244.036 54.184 244.628 53.208C245.22 52.216 246.028 51.44 247.052 50.88C248.076 50.32 249.244 50.04 250.556 50.04C251.884 50.04 253.06 50.32 254.084 50.88C255.124 51.44 255.932 52.208 256.508 53.184C257.1 54.16 257.396 55.296 257.396 56.592C257.396 57.856 257.1 58.984 256.508 59.976C255.932 60.968 255.124 61.752 254.084 62.328C253.06 62.888 251.884 63.168 250.556 63.168ZM250.556 60.6C251.292 60.6 251.948 60.44 252.524 60.12C253.1 59.8 253.548 59.336 253.868 58.728C254.204 58.12 254.372 57.408 254.372 56.592C254.372 55.76 254.204 55.048 253.868 54.456C253.548 53.848 253.1 53.384 252.524 53.064C251.948 52.744 251.3 52.584 250.58 52.584C249.844 52.584 249.188 52.744 248.612 53.064C248.052 53.384 247.604 53.848 247.268 54.456C246.932 55.048 246.764 55.76 246.764 56.592C246.764 57.408 246.932 58.12 247.268 58.728C247.604 59.336 248.052 59.8 248.612 60.12C249.188 60.44 249.836 60.6 250.556 60.6ZM276.441 50.04C277.465 50.04 278.369 50.24 279.153 50.64C279.953 51.04 280.577 51.656 281.025 52.488C281.473 53.304 281.697 54.36 281.697 55.656V63H278.697V56.04C278.697 54.904 278.449 54.056 277.953 53.496C277.457 52.936 276.745 52.656 275.817 52.656C275.161 52.656 274.577 52.8 274.065 53.088C273.569 53.376 273.177 53.8 272.889 54.36C272.617 54.92 272.481 55.632 272.481 56.496V63H269.481V56.04C269.481 54.904 269.233 54.056 268.737 53.496C268.241 52.936 267.529 52.656 266.601 52.656C265.945 52.656 265.361 52.8 264.849 53.088C264.353 53.376 263.961 53.8 263.673 54.36C263.401 54.92 263.265 55.632 263.265 56.496V63H260.265V50.184H263.121V53.592L262.617 52.584C263.049 51.752 263.673 51.12 264.489 50.688C265.321 50.256 266.265 50.04 267.321 50.04C268.521 50.04 269.561 50.336 270.441 50.928C271.337 51.52 271.929 52.416 272.217 53.616L271.041 53.208C271.457 52.248 272.145 51.48 273.105 50.904C274.065 50.328 275.177 50.04 276.441 50.04ZM285.531 63V50.184H288.531V63H285.531ZM287.043 48.072C286.483 48.072 286.019 47.896 285.651 47.544C285.299 47.192 285.123 46.768 285.123 46.272C285.123 45.76 285.299 45.336 285.651 45C286.019 44.648 286.483 44.472 287.043 44.472C287.603 44.472 288.059 44.64 288.411 44.976C288.779 45.296 288.963 45.704 288.963 46.2C288.963 46.728 288.787 47.176 288.435 47.544C288.083 47.896 287.619 48.072 287.043 48.072ZM299.74 50.04C300.764 50.04 301.676 50.24 302.476 50.64C303.292 51.04 303.932 51.656 304.396 52.488C304.86 53.304 305.092 54.36 305.092 55.656V63H302.092V56.04C302.092 54.904 301.82 54.056 301.276 53.496C300.748 52.936 300.004 52.656 299.044 52.656C298.34 52.656 297.716 52.8 297.172 53.088C296.628 53.376 296.204 53.808 295.9 54.384C295.612 54.944 295.468 55.656 295.468 56.52V63H292.468V50.184H295.324V53.64L294.82 52.584C295.268 51.768 295.916 51.144 296.764 50.712C297.628 50.264 298.62 50.04 299.74 50.04ZM314.729 67.824C313.545 67.824 312.385 67.664 311.249 67.344C310.129 67.04 309.209 66.592 308.489 66L309.833 63.744C310.393 64.208 311.097 64.576 311.945 64.848C312.809 65.136 313.681 65.28 314.561 65.28C315.969 65.28 317.001 64.952 317.657 64.296C318.313 63.656 318.641 62.688 318.641 61.392V59.112L318.881 56.208L318.785 53.304V50.184H321.641V61.056C321.641 63.376 321.049 65.08 319.865 66.168C318.681 67.272 316.969 67.824 314.729 67.824ZM314.345 62.424C313.129 62.424 312.025 62.168 311.033 61.656C310.057 61.128 309.281 60.4 308.705 59.472C308.145 58.544 307.865 57.456 307.865 56.208C307.865 54.976 308.145 53.896 308.705 52.968C309.281 52.04 310.057 51.32 311.033 50.808C312.025 50.296 313.129 50.04 314.345 50.04C315.433 50.04 316.409 50.256 317.273 50.688C318.137 51.12 318.825 51.792 319.337 52.704C319.865 53.616 320.129 54.784 320.129 56.208C320.129 57.632 319.865 58.808 319.337 59.736C318.825 60.648 318.137 61.328 317.273 61.776C316.409 62.208 315.433 62.424 314.345 62.424ZM314.801 59.88C315.553 59.88 316.225 59.728 316.817 59.424C317.409 59.104 317.865 58.672 318.185 58.128C318.521 57.568 318.689 56.928 318.689 56.208C318.689 55.488 318.521 54.856 318.185 54.312C317.865 53.752 317.409 53.328 316.817 53.04C316.225 52.736 315.553 52.584 314.801 52.584C314.049 52.584 313.369 52.736 312.761 53.04C312.169 53.328 311.705 53.752 311.369 54.312C311.049 54.856 310.889 55.488 310.889 56.208C310.889 56.928 311.049 57.568 311.369 58.128C311.705 58.672 312.169 59.104 312.761 59.424C313.369 59.728 314.049 59.88 314.801 59.88ZM43.864 92V89.408L43.696 88.856V84.32C43.696 83.44 43.432 82.76 42.904 82.28C42.376 81.784 41.576 81.536 40.504 81.536C39.784 81.536 39.072 81.648 38.368 81.872C37.68 82.096 37.096 82.408 36.616 82.808L35.44 80.624C36.128 80.096 36.944 79.704 37.888 79.448C38.848 79.176 39.84 79.04 40.864 79.04C42.72 79.04 44.152 79.488 45.16 80.384C46.184 81.264 46.696 82.632 46.696 84.488V92H43.864ZM39.832 92.168C38.872 92.168 38.032 92.008 37.312 91.688C36.592 91.352 36.032 90.896 35.632 90.32C35.248 89.728 35.056 89.064 35.056 88.328C35.056 87.608 35.224 86.96 35.56 86.384C35.912 85.808 36.48 85.352 37.264 85.016C38.048 84.68 39.088 84.512 40.384 84.512H44.104V86.504H40.6C39.576 86.504 38.888 86.672 38.536 87.008C38.184 87.328 38.008 87.728 38.008 88.208C38.008 88.752 38.224 89.184 38.656 89.504C39.088 89.824 39.688 89.984 40.456 89.984C41.192 89.984 41.848 89.816 42.424 89.48C43.016 89.144 43.44 88.648 43.696 87.992L44.2 89.792C43.912 90.544 43.392 91.128 42.64 91.544C41.904 91.96 40.968 92.168 39.832 92.168ZM60.5869 92L55.0909 79.184H58.2109L62.9389 90.488H61.4029L66.2989 79.184H69.1789L63.6829 92H60.5869ZM76.4624 92.168C75.1504 92.168 73.9824 91.888 72.9584 91.328C71.9344 90.752 71.1264 89.968 70.5344 88.976C69.9424 87.984 69.6464 86.856 69.6464 85.592C69.6464 84.312 69.9424 83.184 70.5344 82.208C71.1264 81.216 71.9344 80.44 72.9584 79.88C73.9824 79.32 75.1504 79.04 76.4624 79.04C77.7904 79.04 78.9664 79.32 79.9904 79.88C81.0304 80.44 81.8384 81.208 82.4144 82.184C83.0064 83.16 83.3024 84.296 83.3024 85.592C83.3024 86.856 83.0064 87.984 82.4144 88.976C81.8384 89.968 81.0304 90.752 79.9904 91.328C78.9664 91.888 77.7904 92.168 76.4624 92.168ZM76.4624 89.6C77.1984 89.6 77.8544 89.44 78.4304 89.12C79.0064 88.8 79.4544 88.336 79.7744 87.728C80.1104 87.12 80.2784 86.408 80.2784 85.592C80.2784 84.76 80.1104 84.048 79.7744 83.456C79.4544 82.848 79.0064 82.384 78.4304 82.064C77.8544 81.744 77.2064 81.584 76.4864 81.584C75.7504 81.584 75.0944 81.744 74.5184 82.064C73.9584 82.384 73.5104 82.848 73.1744 83.456C72.8384 84.048 72.6704 84.76 72.6704 85.592C72.6704 86.408 72.8384 87.12 73.1744 87.728C73.5104 88.336 73.9584 88.8 74.5184 89.12C75.0944 89.44 75.7424 89.6 76.4624 89.6ZM86.1711 92V74.192H89.1711V92H86.1711ZM98.5326 92.168C97.4446 92.168 96.4846 91.968 95.6526 91.568C94.8206 91.152 94.1726 90.528 93.7086 89.696C93.2446 88.848 93.0126 87.784 93.0126 86.504V79.184H96.0126V86.096C96.0126 87.248 96.2686 88.112 96.7806 88.688C97.3086 89.248 98.0526 89.528 99.0126 89.528C99.7166 89.528 100.325 89.384 100.837 89.096C101.365 88.808 101.773 88.376 102.061 87.8C102.365 87.224 102.517 86.512 102.517 85.664V79.184H105.517V92H102.661V88.544L103.165 89.6C102.733 90.432 102.101 91.072 101.269 91.52C100.437 91.952 99.5246 92.168 98.5326 92.168ZM116.717 79.04C117.741 79.04 118.653 79.24 119.453 79.64C120.269 80.04 120.909 80.656 121.373 81.488C121.837 82.304 122.069 83.36 122.069 84.656V92H119.069V85.04C119.069 83.904 118.797 83.056 118.253 82.496C117.725 81.936 116.981 81.656 116.021 81.656C115.317 81.656 114.693 81.8 114.149 82.088C113.605 82.376 113.181 82.808 112.877 83.384C112.589 83.944 112.445 84.656 112.445 85.52V92H109.445V79.184H112.301V82.64L111.797 81.584C112.245 80.768 112.893 80.144 113.741 79.712C114.605 79.264 115.597 79.04 116.717 79.04ZM130.698 92.168C129.29 92.168 128.202 91.808 127.434 91.088C126.666 90.352 126.282 89.272 126.282 87.848V76.352H129.282V87.776C129.282 88.384 129.434 88.856 129.738 89.192C130.058 89.528 130.498 89.696 131.058 89.696C131.73 89.696 132.29 89.52 132.738 89.168L133.578 91.304C133.226 91.592 132.794 91.808 132.282 91.952C131.77 92.096 131.242 92.168 130.698 92.168ZM124.17 81.68V79.28H132.714V81.68H124.17ZM141.648 92.168C140.224 92.168 138.976 91.888 137.904 91.328C136.848 90.752 136.024 89.968 135.432 88.976C134.856 87.984 134.568 86.856 134.568 85.592C134.568 84.312 134.848 83.184 135.408 82.208C135.984 81.216 136.768 80.44 137.76 79.88C138.768 79.32 139.912 79.04 141.192 79.04C142.44 79.04 143.552 79.312 144.528 79.856C145.504 80.4 146.272 81.168 146.832 82.16C147.392 83.152 147.672 84.32 147.672 85.664C147.672 85.792 147.664 85.936 147.648 86.096C147.648 86.256 147.64 86.408 147.624 86.552H136.944V84.56H146.04L144.864 85.184C144.88 84.448 144.728 83.8 144.408 83.24C144.088 82.68 143.648 82.24 143.088 81.92C142.544 81.6 141.912 81.44 141.192 81.44C140.456 81.44 139.808 81.6 139.248 81.92C138.704 82.24 138.272 82.688 137.952 83.264C137.648 83.824 137.496 84.488 137.496 85.256V85.736C137.496 86.504 137.672 87.184 138.024 87.776C138.376 88.368 138.872 88.824 139.512 89.144C140.152 89.464 140.888 89.624 141.72 89.624C142.44 89.624 143.088 89.512 143.664 89.288C144.24 89.064 144.752 88.712 145.2 88.232L146.808 90.08C146.232 90.752 145.504 91.272 144.624 91.64C143.76 91.992 142.768 92.168 141.648 92.168ZM156.578 92.168C155.154 92.168 153.906 91.888 152.834 91.328C151.778 90.752 150.954 89.968 150.362 88.976C149.786 87.984 149.498 86.856 149.498 85.592C149.498 84.312 149.778 83.184 150.338 82.208C150.914 81.216 151.698 80.44 152.69 79.88C153.698 79.32 154.842 79.04 156.122 79.04C157.37 79.04 158.482 79.312 159.458 79.856C160.434 80.4 161.202 81.168 161.762 82.16C162.322 83.152 162.602 84.32 162.602 85.664C162.602 85.792 162.594 85.936 162.578 86.096C162.578 86.256 162.57 86.408 162.554 86.552H151.874V84.56H160.97L159.794 85.184C159.81 84.448 159.658 83.8 159.338 83.24C159.018 82.68 158.578 82.24 158.018 81.92C157.474 81.6 156.842 81.44 156.122 81.44C155.386 81.44 154.738 81.6 154.178 81.92C153.634 82.24 153.202 82.688 152.882 83.264C152.578 83.824 152.426 84.488 152.426 85.256V85.736C152.426 86.504 152.602 87.184 152.954 87.776C153.306 88.368 153.802 88.824 154.442 89.144C155.082 89.464 155.818 89.624 156.65 89.624C157.37 89.624 158.018 89.512 158.594 89.288C159.17 89.064 159.682 88.712 160.13 88.232L161.738 90.08C161.162 90.752 160.434 91.272 159.554 91.64C158.69 91.992 157.698 92.168 156.578 92.168ZM165.484 92V79.184H168.34V82.712L168.004 81.68C168.388 80.816 168.988 80.16 169.804 79.712C170.636 79.264 171.668 79.04 172.9 79.04V81.896C172.772 81.864 172.652 81.848 172.54 81.848C172.428 81.832 172.316 81.824 172.204 81.824C171.068 81.824 170.164 82.16 169.492 82.832C168.82 83.488 168.484 84.472 168.484 85.784V92H165.484ZM179.18 86.432C179.18 85.84 179.276 85.32 179.468 84.872C179.66 84.424 179.908 84.024 180.212 83.672C180.516 83.32 180.836 82.992 181.172 82.688C181.524 82.384 181.852 82.088 182.156 81.8C182.46 81.512 182.708 81.208 182.9 80.888C183.092 80.568 183.188 80.208 183.188 79.808C183.188 79.136 182.916 78.592 182.372 78.176C181.828 77.76 181.1 77.552 180.188 77.552C179.308 77.552 178.54 77.712 177.884 78.032C177.244 78.352 176.708 78.808 176.276 79.4L173.948 77.888C174.62 76.976 175.5 76.264 176.588 75.752C177.676 75.224 178.964 74.96 180.452 74.96C181.62 74.96 182.644 75.136 183.524 75.488C184.404 75.824 185.092 76.32 185.588 76.976C186.084 77.616 186.332 78.4 186.332 79.328C186.332 79.968 186.228 80.528 186.02 81.008C185.828 81.488 185.572 81.912 185.252 82.28C184.948 82.632 184.62 82.968 184.268 83.288C183.916 83.592 183.58 83.896 183.26 84.2C182.956 84.504 182.708 84.832 182.516 85.184C182.324 85.536 182.228 85.952 182.228 86.432H179.18ZM180.716 92.168C180.156 92.168 179.692 91.984 179.324 91.616C178.972 91.248 178.796 90.808 178.796 90.296C178.796 89.784 178.972 89.352 179.324 89C179.692 88.632 180.156 88.448 180.716 88.448C181.276 88.448 181.732 88.632 182.084 89C182.436 89.352 182.612 89.784 182.612 90.296C182.612 90.808 182.436 91.248 182.084 91.616C181.732 91.984 181.276 92.168 180.716 92.168Z" fill="black"/>
<path d="M36.052 125V112.4H37.384V125H36.052ZM41.4296 125V114.362C41.4296 113.522 41.6756 112.844 42.1676 112.328C42.6596 111.812 43.3676 111.554 44.2916 111.554C44.6516 111.554 44.9996 111.602 45.3356 111.698C45.6716 111.794 45.9536 111.944 46.1816 112.148L45.7496 113.102C45.5696 112.946 45.3596 112.832 45.1196 112.76C44.8796 112.676 44.6216 112.634 44.3456 112.634C43.8056 112.634 43.3916 112.784 43.1036 113.084C42.8156 113.384 42.6716 113.828 42.6716 114.416V115.856L42.7076 116.45V125H41.4296ZM39.7376 116.612V115.55H45.5876V116.612H39.7376ZM52.0962 128.582C51.6522 128.582 51.2262 128.51 50.8182 128.366C50.4222 128.222 50.0802 128.006 49.7922 127.718L50.3862 126.764C50.6262 126.992 50.8842 127.166 51.1602 127.286C51.4482 127.418 51.7662 127.484 52.1142 127.484C52.5342 127.484 52.8942 127.364 53.1942 127.124C53.5062 126.896 53.8002 126.488 54.0762 125.9L54.6882 124.514L54.8322 124.316L58.7202 115.55H59.9802L55.2462 126.134C54.9822 126.746 54.6882 127.232 54.3642 127.592C54.0522 127.952 53.7102 128.204 53.3382 128.348C52.9662 128.504 52.5522 128.582 52.0962 128.582ZM54.6162 125.27L50.2602 115.55H51.5922L55.4442 124.226L54.6162 125.27ZM65.3684 125.09C64.4564 125.09 63.6344 124.886 62.9024 124.478C62.1824 124.058 61.6124 123.488 61.1924 122.768C60.7724 122.036 60.5624 121.202 60.5624 120.266C60.5624 119.318 60.7724 118.484 61.1924 117.764C61.6124 117.044 62.1824 116.48 62.9024 116.072C63.6224 115.664 64.4444 115.46 65.3684 115.46C66.3044 115.46 67.1324 115.664 67.8524 116.072C68.5844 116.48 69.1544 117.044 69.5624 117.764C69.9824 118.484 70.1924 119.318 70.1924 120.266C70.1924 121.202 69.9824 122.036 69.5624 122.768C69.1544 123.488 68.5844 124.058 67.8524 124.478C67.1204 124.886 66.2924 125.09 65.3684 125.09ZM65.3684 123.956C66.0524 123.956 66.6584 123.806 67.1864 123.506C67.7144 123.194 68.1284 122.762 68.4284 122.21C68.7404 121.646 68.8964 120.998 68.8964 120.266C68.8964 119.522 68.7404 118.874 68.4284 118.322C68.1284 117.77 67.7144 117.344 67.1864 117.044C66.6584 116.732 66.0584 116.576 65.3864 116.576C64.7144 116.576 64.1144 116.732 63.5864 117.044C63.0584 117.344 62.6384 117.77 62.3264 118.322C62.0144 118.874 61.8584 119.522 61.8584 120.266C61.8584 120.998 62.0144 121.646 62.3264 122.21C62.6384 122.762 63.0584 123.194 63.5864 123.506C64.1144 123.806 64.7084 123.956 65.3684 123.956ZM76.7075 125.09C75.9035 125.09 75.2015 124.94 74.6015 124.64C74.0015 124.34 73.5335 123.89 73.1975 123.29C72.8735 122.69 72.7115 121.94 72.7115 121.04V115.55H73.9895V120.896C73.9895 121.904 74.2355 122.666 74.7275 123.182C75.2315 123.686 75.9335 123.938 76.8335 123.938C77.4935 123.938 78.0635 123.806 78.5435 123.542C79.0355 123.266 79.4075 122.87 79.6595 122.354C79.9235 121.838 80.0555 121.22 80.0555 120.5V115.55H81.3335V125H80.1095V122.408L80.3075 122.876C80.0075 123.572 79.5395 124.118 78.9035 124.514C78.2795 124.898 77.5475 125.09 76.7075 125.09ZM95.5282 125V122.912L95.4742 122.57V119.078C95.4742 118.274 95.2462 117.656 94.7902 117.224C94.3462 116.792 93.6802 116.576 92.7922 116.576C92.1802 116.576 91.5982 116.678 91.0462 116.882C90.4942 117.086 90.0262 117.356 89.6422 117.692L89.0662 116.738C89.5462 116.33 90.1222 116.018 90.7942 115.802C91.4662 115.574 92.1742 115.46 92.9182 115.46C94.1422 115.46 95.0842 115.766 95.7442 116.378C96.4162 116.978 96.7522 117.896 96.7522 119.132V125H95.5282ZM92.2702 125.09C91.5622 125.09 90.9442 124.976 90.4162 124.748C89.9002 124.508 89.5042 124.184 89.2282 123.776C88.9522 123.356 88.8142 122.876 88.8142 122.336C88.8142 121.844 88.9282 121.4 89.1562 121.004C89.3962 120.596 89.7802 120.272 90.3082 120.032C90.8482 119.78 91.5682 119.654 92.4682 119.654H95.7262V120.608H92.5042C91.5922 120.608 90.9562 120.77 90.5962 121.094C90.2482 121.418 90.0742 121.82 90.0742 122.3C90.0742 122.84 90.2842 123.272 90.7042 123.596C91.1242 123.92 91.7122 124.082 92.4682 124.082C93.1882 124.082 93.8062 123.92 94.3222 123.596C94.8502 123.26 95.2342 122.78 95.4742 122.156L95.7622 123.038C95.5222 123.662 95.1022 124.16 94.5022 124.532C93.9142 124.904 93.1702 125.09 92.2702 125.09ZM100.223 125V115.55H101.447V118.124L101.321 117.674C101.585 116.954 102.029 116.408 102.653 116.036C103.277 115.652 104.051 115.46 104.975 115.46V116.702C104.927 116.702 104.879 116.702 104.831 116.702C104.783 116.69 104.735 116.684 104.687 116.684C103.691 116.684 102.911 116.99 102.347 117.602C101.783 118.202 101.501 119.06 101.501 120.176V125H100.223ZM111.234 125.09C110.25 125.09 109.386 124.886 108.642 124.478C107.898 124.058 107.316 123.488 106.896 122.768C106.476 122.036 106.266 121.202 106.266 120.266C106.266 119.33 106.464 118.502 106.86 117.782C107.268 117.062 107.82 116.498 108.516 116.09C109.224 115.67 110.016 115.46 110.892 115.46C111.78 115.46 112.566 115.664 113.25 116.072C113.946 116.468 114.492 117.032 114.888 117.764C115.284 118.484 115.482 119.318 115.482 120.266C115.482 120.326 115.476 120.392 115.464 120.464C115.464 120.524 115.464 120.59 115.464 120.662H107.238V119.708H114.78L114.276 120.086C114.276 119.402 114.126 118.796 113.826 118.268C113.538 117.728 113.142 117.308 112.638 117.008C112.134 116.708 111.552 116.558 110.892 116.558C110.244 116.558 109.662 116.708 109.146 117.008C108.63 117.308 108.228 117.728 107.94 118.268C107.652 118.808 107.508 119.426 107.508 120.122V120.32C107.508 121.04 107.664 121.676 107.976 122.228C108.3 122.768 108.744 123.194 109.308 123.506C109.884 123.806 110.538 123.956 111.27 123.956C111.846 123.956 112.38 123.854 112.872 123.65C113.376 123.446 113.808 123.134 114.168 122.714L114.888 123.542C114.468 124.046 113.94 124.43 113.304 124.694C112.68 124.958 111.99 125.09 111.234 125.09ZM122.794 125V115.55H124.018V118.124L123.892 117.674C124.156 116.954 124.6 116.408 125.224 116.036C125.848 115.652 126.622 115.46 127.546 115.46V116.702C127.498 116.702 127.45 116.702 127.402 116.702C127.354 116.69 127.306 116.684 127.258 116.684C126.262 116.684 125.482 116.99 124.918 117.602C124.354 118.202 124.072 119.06 124.072 120.176V125H122.794ZM133.804 125.09C132.82 125.09 131.956 124.886 131.212 124.478C130.468 124.058 129.886 123.488 129.466 122.768C129.046 122.036 128.836 121.202 128.836 120.266C128.836 119.33 129.034 118.502 129.43 117.782C129.838 117.062 130.39 116.498 131.086 116.09C131.794 115.67 132.586 115.46 133.462 115.46C134.35 115.46 135.136 115.664 135.82 116.072C136.516 116.468 137.062 117.032 137.458 117.764C137.854 118.484 138.052 119.318 138.052 120.266C138.052 120.326 138.046 120.392 138.034 120.464C138.034 120.524 138.034 120.59 138.034 120.662H129.808V119.708H137.35L136.846 120.086C136.846 119.402 136.696 118.796 136.396 118.268C136.108 117.728 135.712 117.308 135.208 117.008C134.704 116.708 134.122 116.558 133.462 116.558C132.814 116.558 132.232 116.708 131.716 117.008C131.2 117.308 130.798 117.728 130.51 118.268C130.222 118.808 130.078 119.426 130.078 120.122V120.32C130.078 121.04 130.234 121.676 130.546 122.228C130.87 122.768 131.314 123.194 131.878 123.506C132.454 123.806 133.108 123.956 133.84 123.956C134.416 123.956 134.95 123.854 135.442 123.65C135.946 123.446 136.378 123.134 136.738 122.714L137.458 123.542C137.038 124.046 136.51 124.43 135.874 124.694C135.25 124.958 134.56 125.09 133.804 125.09ZM146.311 125V122.912L146.257 122.57V119.078C146.257 118.274 146.029 117.656 145.573 117.224C145.129 116.792 144.463 116.576 143.575 116.576C142.963 116.576 142.381 116.678 141.829 116.882C141.277 117.086 140.809 117.356 140.425 117.692L139.849 116.738C140.329 116.33 140.905 116.018 141.577 115.802C142.249 115.574 142.957 115.46 143.701 115.46C144.925 115.46 145.867 115.766 146.527 116.378C147.199 116.978 147.535 117.896 147.535 119.132V125H146.311ZM143.053 125.09C142.345 125.09 141.727 124.976 141.199 124.748C140.683 124.508 140.287 124.184 140.011 123.776C139.735 123.356 139.597 122.876 139.597 122.336C139.597 121.844 139.711 121.4 139.939 121.004C140.179 120.596 140.563 120.272 141.091 120.032C141.631 119.78 142.351 119.654 143.251 119.654H146.509V120.608H143.287C142.375 120.608 141.739 120.77 141.379 121.094C141.031 121.418 140.857 121.82 140.857 122.3C140.857 122.84 141.067 123.272 141.487 123.596C141.907 123.92 142.495 124.082 143.251 124.082C143.971 124.082 144.589 123.92 145.105 123.596C145.633 123.26 146.017 122.78 146.257 122.156L146.545 123.038C146.305 123.662 145.885 124.16 145.285 124.532C144.697 124.904 143.953 125.09 143.053 125.09ZM154.769 125.09C153.869 125.09 153.059 124.886 152.339 124.478C151.631 124.07 151.073 123.506 150.665 122.786C150.257 122.054 150.053 121.214 150.053 120.266C150.053 119.306 150.257 118.466 150.665 117.746C151.073 117.026 151.631 116.468 152.339 116.072C153.059 115.664 153.869 115.46 154.769 115.46C155.597 115.46 156.335 115.646 156.983 116.018C157.643 116.39 158.165 116.936 158.549 117.656C158.945 118.364 159.143 119.234 159.143 120.266C159.143 121.286 158.951 122.156 158.567 122.876C158.183 123.596 157.661 124.148 157.001 124.532C156.353 124.904 155.609 125.09 154.769 125.09ZM154.859 123.956C155.531 123.956 156.131 123.806 156.659 123.506C157.199 123.194 157.619 122.762 157.919 122.21C158.231 121.646 158.387 120.998 158.387 120.266C158.387 119.522 158.231 118.874 157.919 118.322C157.619 117.77 157.199 117.344 156.659 117.044C156.131 116.732 155.531 116.576 154.859 116.576C154.199 116.576 153.605 116.732 153.077 117.044C152.549 117.344 152.129 117.77 151.817 118.322C151.505 118.874 151.349 119.522 151.349 120.266C151.349 120.998 151.505 121.646 151.817 122.21C152.129 122.762 152.549 123.194 153.077 123.506C153.605 123.806 154.199 123.956 154.859 123.956ZM158.423 125V122.156L158.549 120.248L158.369 118.34V111.644H159.647V125H158.423ZM163.278 128.582C162.834 128.582 162.408 128.51 162 128.366C161.604 128.222 161.262 128.006 160.974 127.718L161.568 126.764C161.808 126.992 162.066 127.166 162.342 127.286C162.63 127.418 162.948 127.484 163.296 127.484C163.716 127.484 164.076 127.364 164.376 127.124C164.688 126.896 164.982 126.488 165.258 125.9L165.87 124.514L166.014 124.316L169.902 115.55H171.162L166.428 126.134C166.164 126.746 165.87 127.232 165.546 127.592C165.234 127.952 164.892 128.204 164.52 128.348C164.148 128.504 163.734 128.582 163.278 128.582ZM165.798 125.27L161.442 115.55H162.774L166.626 124.226L165.798 125.27ZM180.661 125.09C179.773 125.09 179.089 124.85 178.609 124.37C178.129 123.89 177.889 123.212 177.889 122.336V113.462H179.167V122.264C179.167 122.816 179.305 123.242 179.581 123.542C179.869 123.842 180.277 123.992 180.805 123.992C181.369 123.992 181.837 123.83 182.209 123.506L182.659 124.424C182.407 124.652 182.101 124.82 181.741 124.928C181.393 125.036 181.033 125.09 180.661 125.09ZM176.197 116.612V115.55H182.047V116.612H176.197ZM188.503 125.09C187.591 125.09 186.769 124.886 186.037 124.478C185.317 124.058 184.747 123.488 184.327 122.768C183.907 122.036 183.697 121.202 183.697 120.266C183.697 119.318 183.907 118.484 184.327 117.764C184.747 117.044 185.317 116.48 186.037 116.072C186.757 115.664 187.579 115.46 188.503 115.46C189.439 115.46 190.267 115.664 190.987 116.072C191.719 116.48 192.289 117.044 192.697 117.764C193.117 118.484 193.327 119.318 193.327 120.266C193.327 121.202 193.117 122.036 192.697 122.768C192.289 123.488 191.719 124.058 190.987 124.478C190.255 124.886 189.427 125.09 188.503 125.09ZM188.503 123.956C189.187 123.956 189.793 123.806 190.321 123.506C190.849 123.194 191.263 122.762 191.563 122.21C191.875 121.646 192.031 120.998 192.031 120.266C192.031 119.522 191.875 118.874 191.563 118.322C191.263 117.77 190.849 117.344 190.321 117.044C189.793 116.732 189.193 116.576 188.521 116.576C187.849 116.576 187.249 116.732 186.721 117.044C186.193 117.344 185.773 117.77 185.461 118.322C185.149 118.874 184.993 119.522 184.993 120.266C184.993 120.998 185.149 121.646 185.461 122.21C185.773 122.762 186.193 123.194 186.721 123.506C187.249 123.806 187.843 123.956 188.503 123.956ZM205.525 125.09C204.697 125.09 203.953 124.904 203.293 124.532C202.633 124.148 202.111 123.596 201.727 122.876C201.343 122.156 201.151 121.286 201.151 120.266C201.151 119.234 201.343 118.364 201.727 117.656C202.123 116.936 202.651 116.39 203.311 116.018C203.971 115.646 204.709 115.46 205.525 115.46C206.425 115.46 207.229 115.664 207.937 116.072C208.657 116.468 209.221 117.026 209.629 117.746C210.037 118.466 210.241 119.306 210.241 120.266C210.241 121.214 210.037 122.054 209.629 122.786C209.221 123.506 208.657 124.07 207.937 124.478C207.229 124.886 206.425 125.09 205.525 125.09ZM200.647 125V111.644H201.925V118.34L201.745 120.248L201.871 122.156V125H200.647ZM205.435 123.956C206.107 123.956 206.707 123.806 207.235 123.506C207.763 123.194 208.183 122.762 208.495 122.21C208.807 121.646 208.963 120.998 208.963 120.266C208.963 119.522 208.807 118.874 208.495 118.322C208.183 117.77 207.763 117.344 207.235 117.044C206.707 116.732 206.107 116.576 205.435 116.576C204.763 116.576 204.157 116.732 203.617 117.044C203.089 117.344 202.669 117.77 202.357 118.322C202.057 118.874 201.907 119.522 201.907 120.266C201.907 120.998 202.057 121.646 202.357 122.21C202.669 122.762 203.089 123.194 203.617 123.506C204.157 123.806 204.763 123.956 205.435 123.956ZM216.86 125.09C215.876 125.09 215.012 124.886 214.268 124.478C213.524 124.058 212.942 123.488 212.522 122.768C212.102 122.036 211.892 121.202 211.892 120.266C211.892 119.33 212.09 118.502 212.486 117.782C212.894 117.062 213.446 116.498 214.142 116.09C214.85 115.67 215.642 115.46 216.518 115.46C217.406 115.46 218.192 115.664 218.876 116.072C219.572 116.468 220.118 117.032 220.514 117.764C220.91 118.484 221.108 119.318 221.108 120.266C221.108 120.326 221.102 120.392 221.09 120.464C221.09 120.524 221.09 120.59 221.09 120.662H212.864V119.708H220.406L219.902 120.086C219.902 119.402 219.752 118.796 219.452 118.268C219.164 117.728 218.768 117.308 218.264 117.008C217.76 116.708 217.178 116.558 216.518 116.558C215.87 116.558 215.288 116.708 214.772 117.008C214.256 117.308 213.854 117.728 213.566 118.268C213.278 118.808 213.134 119.426 213.134 120.122V120.32C213.134 121.04 213.29 121.676 213.602 122.228C213.926 122.768 214.37 123.194 214.934 123.506C215.51 123.806 216.164 123.956 216.896 123.956C217.472 123.956 218.006 123.854 218.498 123.65C219.002 123.446 219.434 123.134 219.794 122.714L220.514 123.542C220.094 124.046 219.566 124.43 218.93 124.694C218.306 124.958 217.616 125.09 216.86 125.09ZM41.704 147V144.912L41.65 144.57V141.078C41.65 140.274 41.422 139.656 40.966 139.224C40.522 138.792 39.856 138.576 38.968 138.576C38.356 138.576 37.774 138.678 37.222 138.882C36.67 139.086 36.202 139.356 35.818 139.692L35.242 138.738C35.722 138.33 36.298 138.018 36.97 137.802C37.642 137.574 38.35 137.46 39.094 137.46C40.318 137.46 41.26 137.766 41.92 138.378C42.592 138.978 42.928 139.896 42.928 141.132V147H41.704ZM38.446 147.09C37.738 147.09 37.12 146.976 36.592 146.748C36.076 146.508 35.68 146.184 35.404 145.776C35.128 145.356 34.99 144.876 34.99 144.336C34.99 143.844 35.104 143.4 35.332 143.004C35.572 142.596 35.956 142.272 36.484 142.032C37.024 141.78 37.744 141.654 38.644 141.654H41.902V142.608H38.68C37.768 142.608 37.132 142.77 36.772 143.094C36.424 143.418 36.25 143.82 36.25 144.3C36.25 144.84 36.46 145.272 36.88 145.596C37.3 145.92 37.888 146.082 38.644 146.082C39.364 146.082 39.982 145.92 40.498 145.596C41.026 145.26 41.41 144.78 41.65 144.156L41.938 145.038C41.698 145.662 41.278 146.16 40.678 146.532C40.09 146.904 39.346 147.09 38.446 147.09ZM53.5401 147L49.3461 137.55H50.6781L54.5301 146.316H53.9001L57.8061 137.55H59.0661L54.8541 147H53.5401ZM64.4543 147.09C63.5423 147.09 62.7203 146.886 61.9883 146.478C61.2683 146.058 60.6983 145.488 60.2783 144.768C59.8583 144.036 59.6483 143.202 59.6483 142.266C59.6483 141.318 59.8583 140.484 60.2783 139.764C60.6983 139.044 61.2683 138.48 61.9883 138.072C62.7083 137.664 63.5303 137.46 64.4543 137.46C65.3903 137.46 66.2183 137.664 66.9383 138.072C67.6703 138.48 68.2403 139.044 68.6483 139.764C69.0683 140.484 69.2783 141.318 69.2783 142.266C69.2783 143.202 69.0683 144.036 68.6483 144.768C68.2403 145.488 67.6703 146.058 66.9383 146.478C66.2063 146.886 65.3783 147.09 64.4543 147.09ZM64.4543 145.956C65.1383 145.956 65.7443 145.806 66.2723 145.506C66.8003 145.194 67.2143 144.762 67.5143 144.21C67.8263 143.646 67.9823 142.998 67.9823 142.266C67.9823 141.522 67.8263 140.874 67.5143 140.322C67.2143 139.77 66.8003 139.344 66.2723 139.044C65.7443 138.732 65.1443 138.576 64.4723 138.576C63.8003 138.576 63.2003 138.732 62.6723 139.044C62.1443 139.344 61.7243 139.77 61.4123 140.322C61.1003 140.874 60.9443 141.522 60.9443 142.266C60.9443 142.998 61.1003 143.646 61.4123 144.21C61.7243 144.762 62.1443 145.194 62.6723 145.506C63.2003 145.806 63.7943 145.956 64.4543 145.956ZM71.8875 147V133.644H73.1655V147H71.8875ZM80.6275 147.09C79.8235 147.09 79.1215 146.94 78.5215 146.64C77.9215 146.34 77.4535 145.89 77.1175 145.29C76.7935 144.69 76.6315 143.94 76.6315 143.04V137.55H77.9095V142.896C77.9095 143.904 78.1555 144.666 78.6475 145.182C79.1515 145.686 79.8535 145.938 80.7535 145.938C81.4135 145.938 81.9835 145.806 82.4635 145.542C82.9555 145.266 83.3275 144.87 83.5795 144.354C83.8435 143.838 83.9755 143.22 83.9755 142.5V137.55H85.2535V147H84.0295V144.408L84.2275 144.876C83.9275 145.572 83.4595 146.118 82.8235 146.514C82.1995 146.898 81.4675 147.09 80.6275 147.09ZM93.6392 137.46C94.4072 137.46 95.0792 137.61 95.6552 137.91C96.2432 138.198 96.6992 138.642 97.0232 139.242C97.3592 139.842 97.5272 140.598 97.5272 141.51V147H96.2492V141.636C96.2492 140.64 95.9972 139.89 95.4932 139.386C95.0012 138.87 94.3052 138.612 93.4052 138.612C92.7332 138.612 92.1452 138.75 91.6412 139.026C91.1492 139.29 90.7652 139.68 90.4892 140.196C90.2252 140.7 90.0932 141.312 90.0932 142.032V147H88.8152V137.55H90.0392V140.142L89.8412 139.656C90.1412 138.972 90.6212 138.438 91.2812 138.054C91.9412 137.658 92.7272 137.46 93.6392 137.46ZM103.967 147.09C103.079 147.09 102.395 146.85 101.915 146.37C101.435 145.89 101.195 145.212 101.195 144.336V135.462H102.473V144.264C102.473 144.816 102.611 145.242 102.887 145.542C103.175 145.842 103.583 145.992 104.111 145.992C104.675 145.992 105.143 145.83 105.515 145.506L105.965 146.424C105.713 146.652 105.407 146.82 105.047 146.928C104.699 147.036 104.339 147.09 103.967 147.09ZM99.5033 138.612V137.55H105.353V138.612H99.5033ZM111.972 147.09C110.988 147.09 110.124 146.886 109.38 146.478C108.636 146.058 108.054 145.488 107.634 144.768C107.214 144.036 107.004 143.202 107.004 142.266C107.004 141.33 107.202 140.502 107.598 139.782C108.006 139.062 108.558 138.498 109.254 138.09C109.962 137.67 110.754 137.46 111.63 137.46C112.518 137.46 113.304 137.664 113.988 138.072C114.684 138.468 115.23 139.032 115.626 139.764C116.022 140.484 116.22 141.318 116.22 142.266C116.22 142.326 116.214 142.392 116.202 142.464C116.202 142.524 116.202 142.59 116.202 142.662H107.976V141.708H115.518L115.014 142.086C115.014 141.402 114.864 140.796 114.564 140.268C114.276 139.728 113.88 139.308 113.376 139.008C112.872 138.708 112.29 138.558 111.63 138.558C110.982 138.558 110.4 138.708 109.884 139.008C109.368 139.308 108.966 139.728 108.678 140.268C108.39 140.808 108.246 141.426 108.246 142.122V142.32C108.246 143.04 108.402 143.676 108.714 144.228C109.038 144.768 109.482 145.194 110.046 145.506C110.622 145.806 111.276 145.956 112.008 145.956C112.584 145.956 113.118 145.854 113.61 145.65C114.114 145.446 114.546 145.134 114.906 144.714L115.626 145.542C115.206 146.046 114.678 146.43 114.042 146.694C113.418 146.958 112.728 147.09 111.972 147.09ZM122.835 147.09C121.851 147.09 120.987 146.886 120.243 146.478C119.499 146.058 118.917 145.488 118.497 144.768C118.077 144.036 117.867 143.202 117.867 142.266C117.867 141.33 118.065 140.502 118.461 139.782C118.869 139.062 119.421 138.498 120.117 138.09C120.825 137.67 121.617 137.46 122.493 137.46C123.381 137.46 124.167 137.664 124.851 138.072C125.547 138.468 126.093 139.032 126.489 139.764C126.885 140.484 127.083 141.318 127.083 142.266C127.083 142.326 127.077 142.392 127.065 142.464C127.065 142.524 127.065 142.59 127.065 142.662H118.839V141.708H126.381L125.877 142.086C125.877 141.402 125.727 140.796 125.427 140.268C125.139 139.728 124.743 139.308 124.239 139.008C123.735 138.708 123.153 138.558 122.493 138.558C121.845 138.558 121.263 138.708 120.747 139.008C120.231 139.308 119.829 139.728 119.541 140.268C119.253 140.808 119.109 141.426 119.109 142.122V142.32C119.109 143.04 119.265 143.676 119.577 144.228C119.901 144.768 120.345 145.194 120.909 145.506C121.485 145.806 122.139 145.956 122.871 145.956C123.447 145.956 123.981 145.854 124.473 145.65C124.977 145.446 125.409 145.134 125.769 144.714L126.489 145.542C126.069 146.046 125.541 146.43 124.905 146.694C124.281 146.958 123.591 147.09 122.835 147.09ZM129.684 147V137.55H130.908V140.124L130.782 139.674C131.046 138.954 131.49 138.408 132.114 138.036C132.738 137.652 133.512 137.46 134.436 137.46V138.702C134.388 138.702 134.34 138.702 134.292 138.702C134.244 138.69 134.196 138.684 134.148 138.684C133.152 138.684 132.372 138.99 131.808 139.602C131.244 140.202 130.962 141.06 130.962 142.176V147H129.684ZM135.959 149.628L136.751 146.298L136.895 147.072C136.619 147.072 136.385 146.982 136.193 146.802C136.013 146.622 135.923 146.388 135.923 146.1C135.923 145.812 136.013 145.578 136.193 145.398C136.385 145.218 136.613 145.128 136.877 145.128C137.153 145.128 137.375 145.224 137.543 145.416C137.723 145.608 137.813 145.836 137.813 146.1C137.813 146.196 137.807 146.292 137.795 146.388C137.783 146.484 137.759 146.592 137.723 146.712C137.687 146.832 137.639 146.976 137.579 147.144L136.823 149.628H135.959ZM147.797 147.09C147.017 147.09 146.279 146.982 145.583 146.766C144.887 146.538 144.341 146.256 143.945 145.92L144.521 144.912C144.905 145.2 145.397 145.452 145.997 145.668C146.597 145.872 147.227 145.974 147.887 145.974C148.787 145.974 149.435 145.836 149.831 145.56C150.227 145.272 150.425 144.894 150.425 144.426C150.425 144.078 150.311 143.808 150.083 143.616C149.867 143.412 149.579 143.262 149.219 143.166C148.859 143.058 148.457 142.968 148.013 142.896C147.569 142.824 147.125 142.74 146.681 142.644C146.249 142.548 145.853 142.41 145.493 142.23C145.133 142.038 144.839 141.78 144.611 141.456C144.395 141.132 144.287 140.7 144.287 140.16C144.287 139.644 144.431 139.182 144.719 138.774C145.007 138.366 145.427 138.048 145.979 137.82C146.543 137.58 147.227 137.46 148.031 137.46C148.643 137.46 149.255 137.544 149.867 137.712C150.479 137.868 150.983 138.078 151.379 138.342L150.821 139.368C150.401 139.08 149.951 138.876 149.471 138.756C148.991 138.624 148.511 138.558 148.031 138.558C147.179 138.558 146.549 138.708 146.141 139.008C145.745 139.296 145.547 139.668 145.547 140.124C145.547 140.484 145.655 140.766 145.871 140.97C146.099 141.174 146.393 141.336 146.753 141.456C147.125 141.564 147.527 141.654 147.959 141.726C148.403 141.798 148.841 141.888 149.273 141.996C149.717 142.092 150.119 142.23 150.479 142.41C150.851 142.578 151.145 142.824 151.361 143.148C151.589 143.46 151.703 143.874 151.703 144.39C151.703 144.942 151.547 145.422 151.235 145.83C150.935 146.226 150.491 146.538 149.903 146.766C149.327 146.982 148.625 147.09 147.797 147.09ZM154.048 147V137.55H155.326V147H154.048ZM154.696 135.462C154.432 135.462 154.21 135.372 154.03 135.192C153.85 135.012 153.76 134.796 153.76 134.544C153.76 134.292 153.85 134.082 154.03 133.914C154.21 133.734 154.432 133.644 154.696 133.644C154.96 133.644 155.182 133.728 155.362 133.896C155.542 134.064 155.632 134.274 155.632 134.526C155.632 134.79 155.542 135.012 155.362 135.192C155.194 135.372 154.972 135.462 154.696 135.462ZM162.914 150.582C162.05 150.582 161.222 150.456 160.43 150.204C159.638 149.952 158.996 149.592 158.504 149.124L159.152 148.152C159.596 148.548 160.142 148.86 160.79 149.088C161.45 149.328 162.146 149.448 162.878 149.448C164.078 149.448 164.96 149.166 165.524 148.602C166.088 148.05 166.37 147.186 166.37 146.01V143.652L166.55 142.032L166.424 140.412V137.55H167.648V145.848C167.648 147.48 167.246 148.674 166.442 149.43C165.65 150.198 164.474 150.582 162.914 150.582ZM162.68 146.64C161.78 146.64 160.97 146.448 160.25 146.064C159.53 145.668 158.96 145.122 158.54 144.426C158.132 143.73 157.928 142.932 157.928 142.032C157.928 141.132 158.132 140.34 158.54 139.656C158.96 138.96 159.53 138.42 160.25 138.036C160.97 137.652 161.78 137.46 162.68 137.46C163.52 137.46 164.276 137.634 164.948 137.982C165.62 138.33 166.154 138.846 166.55 139.53C166.946 140.214 167.144 141.048 167.144 142.032C167.144 143.016 166.946 143.85 166.55 144.534C166.154 145.218 165.62 145.74 164.948 146.1C164.276 146.46 163.52 146.64 162.68 146.64ZM162.806 145.506C163.502 145.506 164.12 145.362 164.66 145.074C165.2 144.774 165.626 144.366 165.938 143.85C166.25 143.322 166.406 142.716 166.406 142.032C166.406 141.348 166.25 140.748 165.938 140.232C165.626 139.716 165.2 139.314 164.66 139.026C164.12 138.726 163.502 138.576 162.806 138.576C162.122 138.576 161.504 138.726 160.952 139.026C160.412 139.314 159.986 139.716 159.674 140.232C159.374 140.748 159.224 141.348 159.224 142.032C159.224 142.716 159.374 143.322 159.674 143.85C159.986 144.366 160.412 144.774 160.952 145.074C161.504 145.362 162.122 145.506 162.806 145.506ZM176.028 137.46C176.796 137.46 177.468 137.61 178.044 137.91C178.632 138.198 179.088 138.642 179.412 139.242C179.748 139.842 179.916 140.598 179.916 141.51V147H178.638V141.636C178.638 140.64 178.386 139.89 177.882 139.386C177.39 138.87 176.694 138.612 175.794 138.612C175.122 138.612 174.534 138.75 174.03 139.026C173.538 139.29 173.154 139.68 172.878 140.196C172.614 140.7 172.482 141.312 172.482 142.032V147H171.204V137.55H172.428V140.142L172.23 139.656C172.53 138.972 173.01 138.438 173.67 138.054C174.33 137.658 175.116 137.46 176.028 137.46ZM191.985 147.09C191.181 147.09 190.479 146.94 189.879 146.64C189.279 146.34 188.811 145.89 188.475 145.29C188.151 144.69 187.989 143.94 187.989 143.04V137.55H189.267V142.896C189.267 143.904 189.513 144.666 190.005 145.182C190.509 145.686 191.211 145.938 192.111 145.938C192.771 145.938 193.341 145.806 193.821 145.542C194.313 145.266 194.685 144.87 194.937 144.354C195.201 143.838 195.333 143.22 195.333 142.5V137.55H196.611V147H195.387V144.408L195.585 144.876C195.285 145.572 194.817 146.118 194.181 146.514C193.557 146.898 192.825 147.09 191.985 147.09ZM205.051 147.09C204.235 147.09 203.497 146.904 202.837 146.532C202.177 146.148 201.649 145.602 201.253 144.894C200.869 144.174 200.677 143.298 200.677 142.266C200.677 141.234 200.869 140.364 201.253 139.656C201.637 138.936 202.159 138.39 202.819 138.018C203.479 137.646 204.223 137.46 205.051 137.46C205.951 137.46 206.755 137.664 207.463 138.072C208.183 138.468 208.747 139.032 209.155 139.764C209.563 140.484 209.767 141.318 209.767 142.266C209.767 143.226 209.563 144.066 209.155 144.786C208.747 145.506 208.183 146.07 207.463 146.478C206.755 146.886 205.951 147.09 205.051 147.09ZM200.173 150.492V137.55H201.397V140.394L201.271 142.284L201.451 144.192V150.492H200.173ZM204.961 145.956C205.633 145.956 206.233 145.806 206.761 145.506C207.289 145.194 207.709 144.762 208.021 144.21C208.333 143.646 208.489 142.998 208.489 142.266C208.489 141.534 208.333 140.892 208.021 140.34C207.709 139.788 207.289 139.356 206.761 139.044C206.233 138.732 205.633 138.576 204.961 138.576C204.289 138.576 203.683 138.732 203.143 139.044C202.615 139.356 202.195 139.788 201.883 140.34C201.583 140.892 201.433 141.534 201.433 142.266C201.433 142.998 201.583 143.646 201.883 144.21C202.195 144.762 202.615 145.194 203.143 145.506C203.683 145.806 204.289 145.956 204.961 145.956Z" fill="#696969"/>
</svg>
