<svg width="490" height="210" viewBox="0 0 490 210" fill="none" xmlns="http://www.w3.org/2000/svg">
<rect x="0.5" y="0.5" width="489" height="209" rx="14.5" stroke="#D3D3D3"/>
<path opacity="0.2" d="M361.286 59.9091C361.286 57.6668 362.166 55.5164 363.733 53.9308C365.301 52.3453 367.426 51.4545 369.643 51.4545C371.859 51.4545 373.985 52.3453 375.552 53.9308C377.12 55.5164 378 57.6668 378 59.9091C378 62.1514 377.12 64.3018 375.552 65.8874C373.985 67.4729 371.859 68.3636 369.643 68.3636C367.426 68.3636 365.301 67.4729 363.733 65.8874C362.166 64.3018 361.286 62.1514 361.286 59.9091ZM369.643 43C367.448 43 365.274 43.4374 363.247 44.2871C361.219 45.1369 359.376 46.3824 357.824 47.9526C356.272 49.5227 355.041 51.3868 354.201 53.4383C353.361 55.4898 352.929 57.6886 352.929 59.9091C352.929 62.1296 353.361 64.3284 354.201 66.3799C355.041 68.4314 356.272 70.2955 357.824 71.8656C359.376 73.4358 361.219 74.6813 363.247 75.5311C365.274 76.3808 367.448 76.8182 369.643 76.8182C374.076 76.8182 378.327 75.0367 381.462 71.8656C384.596 68.6946 386.357 64.3937 386.357 59.9091C386.357 55.4245 384.596 51.1236 381.462 47.9526C378.327 44.7815 374.076 43 369.643 43ZM339 92.4196C339 86.9073 343.407 82.4545 348.85 82.4545H375.409C373.926 85.0554 372.971 87.9299 372.601 90.9091H348.85C348.455 90.912 348.077 91.0721 347.798 91.3548C347.518 91.6374 347.36 92.0199 347.357 92.4196V94.4318C347.357 95.2322 347.374 100.068 350.07 104.605C352.238 108.258 356.461 112.271 365.392 113.235C362.718 115.038 360.623 117.665 359.475 120.759C351.129 118.696 345.953 114.091 342.906 108.962C339 102.385 339 95.6211 339 94.4431V92.4196ZM416.833 90.9091C416.461 87.9295 415.504 85.055 414.019 82.4545H440.578C446.027 82.4545 450.429 86.9129 450.429 92.4196V94.4487C450.429 95.5027 450.429 101.128 447.554 107.052C445.335 105.305 442.923 103.826 440.367 102.644C441.479 100.052 442.059 97.2578 442.071 94.4318V92.4196C442.069 92.0199 441.91 91.6374 441.631 91.3548C441.351 91.0721 440.973 90.912 440.578 90.9091H416.833ZM408.192 103.732C409.504 101.943 410.453 99.9087 410.986 97.747C411.518 95.5854 411.623 93.3386 411.295 91.1357C410.966 88.9329 410.211 86.8174 409.072 84.9109C407.932 83.0044 406.432 81.3443 404.657 80.0262C402.881 78.7081 400.866 77.7579 398.727 77.2302C396.587 76.7024 394.366 76.6076 392.19 76.9511C390.014 77.2946 387.927 78.0696 386.048 79.2317C384.17 80.3938 382.536 81.9201 381.243 83.7227C378.647 87.3395 377.572 91.8489 378.253 96.2651C378.934 100.681 381.316 104.645 384.878 107.29C388.44 109.934 392.892 111.045 397.261 110.378C401.629 109.711 405.559 107.322 408.192 103.732ZM394.837 116.273H373.922C368.478 116.273 364.071 120.731 364.071 126.238V128.267C364.071 129.434 364.071 136.203 367.971 142.781C372.111 149.736 380.156 155.727 394.714 155.727H394.837C393.135 153.038 391.789 150.135 390.831 147.092C381.644 146.191 377.337 142.121 375.142 138.424C372.445 133.886 372.429 129.05 372.429 128.25V126.238C372.429 125.404 373.097 124.727 373.922 124.727H390.887C391.841 121.75 393.169 118.909 394.837 116.273ZM419.786 51.4545C417.569 51.4545 415.444 52.3453 413.876 53.9308C412.309 55.5164 411.429 57.6668 411.429 59.9091C411.429 62.1514 412.309 64.3018 413.876 65.8874C415.444 67.4729 417.569 68.3636 419.786 68.3636C422.002 68.3636 424.128 67.4729 425.695 65.8874C427.262 64.3018 428.143 62.1514 428.143 59.9091C428.143 57.6668 427.262 55.5164 425.695 53.9308C424.128 52.3453 422.002 51.4545 419.786 51.4545ZM403.071 59.9091C403.071 55.4245 404.832 51.1236 407.967 47.9526C411.101 44.7815 415.353 43 419.786 43C424.219 43 428.47 44.7815 431.605 47.9526C434.739 51.1236 436.5 55.4245 436.5 59.9091C436.5 64.3937 434.739 68.6946 431.605 71.8656C428.47 75.0367 424.219 76.8182 419.786 76.8182C415.353 76.8182 411.101 75.0367 407.967 71.8656C404.832 68.6946 403.071 64.3937 403.071 59.9091ZM386.357 93.7273C386.357 91.485 387.238 89.3345 388.805 87.749C390.372 86.1635 392.498 85.2727 394.714 85.2727C396.931 85.2727 399.056 86.1635 400.624 87.749C402.191 89.3345 403.071 91.485 403.071 93.7273C403.071 95.9696 402.191 98.12 400.624 99.7055C399.056 101.291 396.931 102.182 394.714 102.182C392.498 102.182 390.372 101.291 388.805 99.7055C387.238 98.12 386.357 95.9696 386.357 93.7273ZM425.357 105C433.484 105 441.278 108.266 447.025 114.08C452.772 119.893 456 127.778 456 136C456 144.222 452.772 152.107 447.025 157.92C441.278 163.734 433.484 167 425.357 167C417.23 167 409.436 163.734 403.689 157.92C397.943 152.107 394.714 144.222 394.714 136C394.714 127.778 397.943 119.893 403.689 114.08C409.436 108.266 417.23 105 425.357 105ZM428.148 152.926V138.818H442.055C442.794 138.818 443.502 138.521 444.025 137.993C444.547 137.464 444.84 136.747 444.84 136C444.84 135.253 444.547 134.536 444.025 134.007C443.502 133.479 442.794 133.182 442.055 133.182H428.143V119.091C428.143 118.343 427.849 117.627 427.327 117.098C426.805 116.57 426.096 116.273 425.357 116.273C424.618 116.273 423.91 116.57 423.387 117.098C422.865 117.627 422.571 118.343 422.571 119.091V133.182H408.621C407.882 133.182 407.173 133.479 406.651 134.007C406.128 134.536 405.835 135.253 405.835 136C405.835 136.747 406.128 137.464 406.651 137.993C407.173 138.521 407.882 138.818 408.621 138.818H422.571V152.926C422.571 153.673 422.865 154.39 423.387 154.919C423.91 155.447 424.618 155.744 425.357 155.744C426.096 155.744 426.805 155.447 427.327 154.919C427.849 154.39 428.148 153.673 428.148 152.926Z" fill="#98BE00"/>
<path d="M36.256 63V46.2H43.6C45.424 46.2 47.024 46.552 48.4 47.256C49.776 47.96 50.848 48.936 51.616 50.184C52.384 51.432 52.768 52.904 52.768 54.6C52.768 56.28 52.384 57.752 51.616 59.016C50.848 60.264 49.776 61.24 48.4 61.944C47.024 62.648 45.424 63 43.6 63H36.256ZM39.376 60.36H43.456C44.72 60.36 45.808 60.12 46.72 59.64C47.648 59.16 48.36 58.488 48.856 57.624C49.368 56.76 49.624 55.752 49.624 54.6C49.624 53.432 49.368 52.424 48.856 51.576C48.36 50.712 47.648 50.04 46.72 49.56C45.808 49.08 44.72 48.84 43.456 48.84H39.376V60.36ZM61.5561 63.168C60.2441 63.168 59.0761 62.888 58.0521 62.328C57.0281 61.752 56.2201 60.968 55.6281 59.976C55.0361 58.984 54.7401 57.856 54.7401 56.592C54.7401 55.312 55.0361 54.184 55.6281 53.208C56.2201 52.216 57.0281 51.44 58.0521 50.88C59.0761 50.32 60.2441 50.04 61.5561 50.04C62.8841 50.04 64.0601 50.32 65.0841 50.88C66.1241 51.44 66.9321 52.208 67.5081 53.184C68.1001 54.16 68.3961 55.296 68.3961 56.592C68.3961 57.856 68.1001 58.984 67.5081 59.976C66.9321 60.968 66.1241 61.752 65.0841 62.328C64.0601 62.888 62.8841 63.168 61.5561 63.168ZM61.5561 60.6C62.2921 60.6 62.9481 60.44 63.5241 60.12C64.1001 59.8 64.5481 59.336 64.8681 58.728C65.2041 58.12 65.3721 57.408 65.3721 56.592C65.3721 55.76 65.2041 55.048 64.8681 54.456C64.5481 53.848 64.1001 53.384 63.5241 53.064C62.9481 52.744 62.3001 52.584 61.5801 52.584C60.8441 52.584 60.1881 52.744 59.6121 53.064C59.0521 53.384 58.6041 53.848 58.2681 54.456C57.9321 55.048 57.7641 55.76 57.7641 56.592C57.7641 57.408 57.9321 58.12 58.2681 58.728C58.6041 59.336 59.0521 59.8 59.6121 60.12C60.1881 60.44 60.8361 60.6 61.5561 60.6ZM78.9537 67.824C78.3297 67.824 77.7057 67.72 77.0817 67.512C76.4577 67.304 75.9377 67.016 75.5217 66.648L76.7217 64.44C77.0257 64.712 77.3697 64.928 77.7537 65.088C78.1377 65.248 78.5297 65.328 78.9297 65.328C79.4737 65.328 79.9137 65.192 80.2497 64.92C80.5857 64.648 80.8977 64.192 81.1857 63.552L81.9297 61.872L82.1697 61.512L87.0177 50.184H89.8977L83.8977 64.032C83.4977 64.992 83.0497 65.752 82.5537 66.312C82.0737 66.872 81.5297 67.264 80.9217 67.488C80.3297 67.712 79.6737 67.824 78.9537 67.824ZM81.5937 63.456L75.8097 50.184H78.9297L83.6337 61.248L81.5937 63.456ZM97.1811 63.168C95.8691 63.168 94.7011 62.888 93.6771 62.328C92.6531 61.752 91.8451 60.968 91.2531 59.976C90.6611 58.984 90.3651 57.856 90.3651 56.592C90.3651 55.312 90.6611 54.184 91.2531 53.208C91.8451 52.216 92.6531 51.44 93.6771 50.88C94.7011 50.32 95.8691 50.04 97.1811 50.04C98.5091 50.04 99.6851 50.32 100.709 50.88C101.749 51.44 102.557 52.208 103.133 53.184C103.725 54.16 104.021 55.296 104.021 56.592C104.021 57.856 103.725 58.984 103.133 59.976C102.557 60.968 101.749 61.752 100.709 62.328C99.6851 62.888 98.5091 63.168 97.1811 63.168ZM97.1811 60.6C97.9171 60.6 98.5731 60.44 99.1491 60.12C99.7251 59.8 100.173 59.336 100.493 58.728C100.829 58.12 100.997 57.408 100.997 56.592C100.997 55.76 100.829 55.048 100.493 54.456C100.173 53.848 99.7251 53.384 99.1491 53.064C98.5731 52.744 97.9251 52.584 97.2051 52.584C96.4691 52.584 95.8131 52.744 95.2371 53.064C94.6771 53.384 94.2291 53.848 93.8931 54.456C93.5571 55.048 93.3891 55.76 93.3891 56.592C93.3891 57.408 93.5571 58.12 93.8931 58.728C94.2291 59.336 94.6771 59.8 95.2371 60.12C95.8131 60.44 96.4611 60.6 97.1811 60.6ZM112.314 63.168C111.226 63.168 110.266 62.968 109.434 62.568C108.602 62.152 107.954 61.528 107.49 60.696C107.026 59.848 106.794 58.784 106.794 57.504V50.184H109.794V57.096C109.794 58.248 110.05 59.112 110.562 59.688C111.09 60.248 111.834 60.528 112.794 60.528C113.498 60.528 114.106 60.384 114.618 60.096C115.146 59.808 115.554 59.376 115.842 58.8C116.146 58.224 116.298 57.512 116.298 56.664V50.184H119.298V63H116.442V59.544L116.946 60.6C116.514 61.432 115.882 62.072 115.05 62.52C114.218 62.952 113.306 63.168 112.314 63.168ZM137.131 50.04C138.155 50.04 139.067 50.24 139.867 50.64C140.683 51.04 141.323 51.656 141.787 52.488C142.251 53.304 142.483 54.36 142.483 55.656V63H139.483V56.04C139.483 54.904 139.211 54.056 138.667 53.496C138.139 52.936 137.395 52.656 136.435 52.656C135.731 52.656 135.107 52.8 134.563 53.088C134.019 53.376 133.595 53.808 133.291 54.384C133.003 54.944 132.859 55.656 132.859 56.52V63H129.859V50.184H132.715V53.64L132.211 52.584C132.659 51.768 133.307 51.144 134.155 50.712C135.019 50.264 136.011 50.04 137.131 50.04ZM152.336 63.168C150.912 63.168 149.664 62.888 148.592 62.328C147.536 61.752 146.712 60.968 146.12 59.976C145.544 58.984 145.256 57.856 145.256 56.592C145.256 55.312 145.536 54.184 146.096 53.208C146.672 52.216 147.456 51.44 148.448 50.88C149.456 50.32 150.6 50.04 151.88 50.04C153.128 50.04 154.24 50.312 155.216 50.856C156.192 51.4 156.96 52.168 157.52 53.16C158.08 54.152 158.36 55.32 158.36 56.664C158.36 56.792 158.352 56.936 158.336 57.096C158.336 57.256 158.328 57.408 158.312 57.552H147.632V55.56H156.728L155.552 56.184C155.568 55.448 155.416 54.8 155.096 54.24C154.776 53.68 154.336 53.24 153.776 52.92C153.232 52.6 152.6 52.44 151.88 52.44C151.144 52.44 150.496 52.6 149.936 52.92C149.392 53.24 148.96 53.688 148.64 54.264C148.336 54.824 148.184 55.488 148.184 56.256V56.736C148.184 57.504 148.36 58.184 148.712 58.776C149.064 59.368 149.56 59.824 150.2 60.144C150.84 60.464 151.576 60.624 152.408 60.624C153.128 60.624 153.776 60.512 154.352 60.288C154.928 60.064 155.44 59.712 155.888 59.232L157.496 61.08C156.92 61.752 156.192 62.272 155.312 62.64C154.448 62.992 153.456 63.168 152.336 63.168ZM167.265 63.168C165.841 63.168 164.593 62.888 163.521 62.328C162.465 61.752 161.641 60.968 161.049 59.976C160.473 58.984 160.185 57.856 160.185 56.592C160.185 55.312 160.465 54.184 161.025 53.208C161.601 52.216 162.385 51.44 163.377 50.88C164.385 50.32 165.529 50.04 166.809 50.04C168.057 50.04 169.169 50.312 170.145 50.856C171.121 51.4 171.889 52.168 172.449 53.16C173.009 54.152 173.289 55.32 173.289 56.664C173.289 56.792 173.281 56.936 173.265 57.096C173.265 57.256 173.257 57.408 173.241 57.552H162.561V55.56H171.657L170.481 56.184C170.497 55.448 170.345 54.8 170.025 54.24C169.705 53.68 169.265 53.24 168.705 52.92C168.161 52.6 167.529 52.44 166.809 52.44C166.073 52.44 165.425 52.6 164.865 52.92C164.321 53.24 163.889 53.688 163.569 54.264C163.265 54.824 163.113 55.488 163.113 56.256V56.736C163.113 57.504 163.289 58.184 163.641 58.776C163.993 59.368 164.489 59.824 165.129 60.144C165.769 60.464 166.505 60.624 167.337 60.624C168.057 60.624 168.705 60.512 169.281 60.288C169.857 60.064 170.369 59.712 170.817 59.232L172.425 61.08C171.849 61.752 171.121 62.272 170.241 62.64C169.377 62.992 168.385 63.168 167.265 63.168ZM181.595 63.168C180.363 63.168 179.251 62.896 178.259 62.352C177.283 61.792 176.515 61.024 175.955 60.048C175.395 59.072 175.115 57.92 175.115 56.592C175.115 55.264 175.395 54.112 175.955 53.136C176.515 52.16 177.283 51.4 178.259 50.856C179.251 50.312 180.363 50.04 181.595 50.04C182.667 50.04 183.627 50.28 184.475 50.76C185.323 51.224 185.995 51.936 186.491 52.896C186.987 53.856 187.235 55.088 187.235 56.592C187.235 58.08 186.995 59.312 186.515 60.288C186.035 61.248 185.371 61.968 184.523 62.448C183.675 62.928 182.699 63.168 181.595 63.168ZM181.955 60.6C182.675 60.6 183.315 60.44 183.875 60.12C184.451 59.8 184.907 59.336 185.243 58.728C185.595 58.12 185.771 57.408 185.771 56.592C185.771 55.76 185.595 55.048 185.243 54.456C184.907 53.848 184.451 53.384 183.875 53.064C183.315 52.744 182.675 52.584 181.955 52.584C181.235 52.584 180.587 52.744 180.011 53.064C179.451 53.384 178.995 53.848 178.643 54.456C178.307 55.048 178.139 55.76 178.139 56.592C178.139 57.408 178.307 58.12 178.643 58.728C178.995 59.336 179.451 59.8 180.011 60.12C180.587 60.44 181.235 60.6 181.955 60.6ZM185.843 63V59.976L185.963 56.568L185.723 53.16V45.192H188.699V63H185.843ZM39.376 92L33.88 79.184H37L41.728 90.488H40.192L45.088 79.184H47.968L42.472 92H39.376ZM55.2514 92.168C53.9394 92.168 52.7714 91.888 51.7474 91.328C50.7234 90.752 49.9154 89.968 49.3234 88.976C48.7314 87.984 48.4354 86.856 48.4354 85.592C48.4354 84.312 48.7314 83.184 49.3234 82.208C49.9154 81.216 50.7234 80.44 51.7474 79.88C52.7714 79.32 53.9394 79.04 55.2514 79.04C56.5794 79.04 57.7554 79.32 58.7794 79.88C59.8194 80.44 60.6274 81.208 61.2034 82.184C61.7954 83.16 62.0914 84.296 62.0914 85.592C62.0914 86.856 61.7954 87.984 61.2034 88.976C60.6274 89.968 59.8194 90.752 58.7794 91.328C57.7554 91.888 56.5794 92.168 55.2514 92.168ZM55.2514 89.6C55.9874 89.6 56.6434 89.44 57.2194 89.12C57.7954 88.8 58.2434 88.336 58.5634 87.728C58.8994 87.12 59.0674 86.408 59.0674 85.592C59.0674 84.76 58.8994 84.048 58.5634 83.456C58.2434 82.848 57.7954 82.384 57.2194 82.064C56.6434 81.744 55.9954 81.584 55.2754 81.584C54.5394 81.584 53.8834 81.744 53.3074 82.064C52.7474 82.384 52.2994 82.848 51.9634 83.456C51.6274 84.048 51.4594 84.76 51.4594 85.592C51.4594 86.408 51.6274 87.12 51.9634 87.728C52.2994 88.336 52.7474 88.8 53.3074 89.12C53.8834 89.44 54.5314 89.6 55.2514 89.6ZM64.9602 92V74.192H67.9602V92H64.9602ZM77.3217 92.168C76.2337 92.168 75.2737 91.968 74.4417 91.568C73.6097 91.152 72.9617 90.528 72.4977 89.696C72.0337 88.848 71.8017 87.784 71.8017 86.504V79.184H74.8017V86.096C74.8017 87.248 75.0577 88.112 75.5697 88.688C76.0977 89.248 76.8417 89.528 77.8017 89.528C78.5057 89.528 79.1137 89.384 79.6257 89.096C80.1537 88.808 80.5617 88.376 80.8497 87.8C81.1537 87.224 81.3057 86.512 81.3057 85.664V79.184H84.3057V92H81.4497V88.544L81.9537 89.6C81.5217 90.432 80.8897 91.072 80.0577 91.52C79.2257 91.952 78.3137 92.168 77.3217 92.168ZM95.5056 79.04C96.5296 79.04 97.4416 79.24 98.2416 79.64C99.0576 80.04 99.6976 80.656 100.162 81.488C100.626 82.304 100.858 83.36 100.858 84.656V92H97.8576V85.04C97.8576 83.904 97.5856 83.056 97.0416 82.496C96.5136 81.936 95.7696 81.656 94.8096 81.656C94.1056 81.656 93.4816 81.8 92.9376 82.088C92.3936 82.376 91.9696 82.808 91.6656 83.384C91.3776 83.944 91.2336 84.656 91.2336 85.52V92H88.2336V79.184H91.0896V82.64L90.5856 81.584C91.0336 80.768 91.6816 80.144 92.5296 79.712C93.3936 79.264 94.3856 79.04 95.5056 79.04ZM109.487 92.168C108.079 92.168 106.991 91.808 106.223 91.088C105.455 90.352 105.071 89.272 105.071 87.848V76.352H108.071V87.776C108.071 88.384 108.223 88.856 108.527 89.192C108.847 89.528 109.287 89.696 109.847 89.696C110.519 89.696 111.079 89.52 111.527 89.168L112.367 91.304C112.015 91.592 111.583 91.808 111.071 91.952C110.559 92.096 110.031 92.168 109.487 92.168ZM102.959 81.68V79.28H111.503V81.68H102.959ZM120.437 92.168C119.013 92.168 117.765 91.888 116.693 91.328C115.637 90.752 114.813 89.968 114.221 88.976C113.645 87.984 113.357 86.856 113.357 85.592C113.357 84.312 113.637 83.184 114.197 82.208C114.773 81.216 115.557 80.44 116.549 79.88C117.557 79.32 118.701 79.04 119.981 79.04C121.229 79.04 122.341 79.312 123.317 79.856C124.293 80.4 125.061 81.168 125.621 82.16C126.181 83.152 126.461 84.32 126.461 85.664C126.461 85.792 126.453 85.936 126.437 86.096C126.437 86.256 126.429 86.408 126.413 86.552H115.733V84.56H124.829L123.653 85.184C123.669 84.448 123.517 83.8 123.197 83.24C122.877 82.68 122.437 82.24 121.877 81.92C121.333 81.6 120.701 81.44 119.981 81.44C119.245 81.44 118.597 81.6 118.037 81.92C117.493 82.24 117.061 82.688 116.741 83.264C116.437 83.824 116.285 84.488 116.285 85.256V85.736C116.285 86.504 116.461 87.184 116.813 87.776C117.165 88.368 117.661 88.824 118.301 89.144C118.941 89.464 119.677 89.624 120.509 89.624C121.229 89.624 121.877 89.512 122.453 89.288C123.029 89.064 123.541 88.712 123.989 88.232L125.597 90.08C125.021 90.752 124.293 91.272 123.413 91.64C122.549 91.992 121.557 92.168 120.437 92.168ZM135.367 92.168C133.943 92.168 132.695 91.888 131.623 91.328C130.567 90.752 129.743 89.968 129.151 88.976C128.575 87.984 128.287 86.856 128.287 85.592C128.287 84.312 128.567 83.184 129.127 82.208C129.703 81.216 130.487 80.44 131.479 79.88C132.487 79.32 133.631 79.04 134.911 79.04C136.159 79.04 137.271 79.312 138.247 79.856C139.223 80.4 139.991 81.168 140.551 82.16C141.111 83.152 141.391 84.32 141.391 85.664C141.391 85.792 141.383 85.936 141.367 86.096C141.367 86.256 141.359 86.408 141.343 86.552H130.663V84.56H139.759L138.583 85.184C138.599 84.448 138.447 83.8 138.127 83.24C137.807 82.68 137.367 82.24 136.807 81.92C136.263 81.6 135.631 81.44 134.911 81.44C134.175 81.44 133.527 81.6 132.967 81.92C132.423 82.24 131.991 82.688 131.671 83.264C131.367 83.824 131.215 84.488 131.215 85.256V85.736C131.215 86.504 131.391 87.184 131.743 87.776C132.095 88.368 132.591 88.824 133.231 89.144C133.871 89.464 134.607 89.624 135.439 89.624C136.159 89.624 136.807 89.512 137.383 89.288C137.959 89.064 138.471 88.712 138.919 88.232L140.527 90.08C139.951 90.752 139.223 91.272 138.343 91.64C137.479 91.992 136.487 92.168 135.367 92.168ZM144.273 92V79.184H147.129V82.712L146.793 81.68C147.177 80.816 147.777 80.16 148.593 79.712C149.425 79.264 150.457 79.04 151.689 79.04V81.896C151.561 81.864 151.441 81.848 151.329 81.848C151.217 81.832 151.105 81.824 150.993 81.824C149.857 81.824 148.953 82.16 148.281 82.832C147.609 83.488 147.273 84.472 147.273 85.784V92H144.273ZM158.311 92.168C157.239 92.168 156.207 92.032 155.215 91.76C154.239 91.472 153.463 91.128 152.887 90.728L154.039 88.448C154.615 88.816 155.303 89.12 156.103 89.36C156.903 89.6 157.703 89.72 158.503 89.72C159.447 89.72 160.127 89.592 160.543 89.336C160.975 89.08 161.191 88.736 161.191 88.304C161.191 87.952 161.047 87.688 160.759 87.512C160.471 87.32 160.095 87.176 159.631 87.08C159.167 86.984 158.647 86.896 158.071 86.816C157.511 86.736 156.943 86.632 156.367 86.504C155.807 86.36 155.295 86.16 154.831 85.904C154.367 85.632 153.991 85.272 153.703 84.824C153.415 84.376 153.271 83.784 153.271 83.048C153.271 82.232 153.503 81.528 153.967 80.936C154.431 80.328 155.079 79.864 155.911 79.544C156.759 79.208 157.759 79.04 158.911 79.04C159.775 79.04 160.647 79.136 161.527 79.328C162.407 79.52 163.135 79.792 163.711 80.144L162.559 82.424C161.951 82.056 161.335 81.808 160.711 81.68C160.103 81.536 159.495 81.464 158.887 81.464C157.975 81.464 157.295 81.6 156.847 81.872C156.415 82.144 156.199 82.488 156.199 82.904C156.199 83.288 156.343 83.576 156.631 83.768C156.919 83.96 157.295 84.112 157.759 84.224C158.223 84.336 158.735 84.432 159.295 84.512C159.871 84.576 160.439 84.68 160.999 84.824C161.559 84.968 162.071 85.168 162.535 85.424C163.015 85.664 163.399 86.008 163.687 86.456C163.975 86.904 164.119 87.488 164.119 88.208C164.119 89.008 163.879 89.704 163.399 90.296C162.935 90.888 162.271 91.352 161.407 91.688C160.543 92.008 159.511 92.168 158.311 92.168ZM169.711 86.432C169.711 85.84 169.807 85.32 169.999 84.872C170.191 84.424 170.439 84.024 170.743 83.672C171.047 83.32 171.367 82.992 171.703 82.688C172.055 82.384 172.383 82.088 172.687 81.8C172.991 81.512 173.239 81.208 173.431 80.888C173.623 80.568 173.719 80.208 173.719 79.808C173.719 79.136 173.447 78.592 172.903 78.176C172.359 77.76 171.631 77.552 170.719 77.552C169.839 77.552 169.071 77.712 168.415 78.032C167.775 78.352 167.239 78.808 166.807 79.4L164.479 77.888C165.151 76.976 166.031 76.264 167.119 75.752C168.207 75.224 169.495 74.96 170.983 74.96C172.151 74.96 173.175 75.136 174.055 75.488C174.935 75.824 175.623 76.32 176.119 76.976C176.615 77.616 176.863 78.4 176.863 79.328C176.863 79.968 176.759 80.528 176.551 81.008C176.359 81.488 176.103 81.912 175.783 82.28C175.479 82.632 175.151 82.968 174.799 83.288C174.447 83.592 174.111 83.896 173.791 84.2C173.487 84.504 173.239 84.832 173.047 85.184C172.855 85.536 172.759 85.952 172.759 86.432H169.711ZM171.247 92.168C170.687 92.168 170.223 91.984 169.855 91.616C169.503 91.248 169.327 90.808 169.327 90.296C169.327 89.784 169.503 89.352 169.855 89C170.223 88.632 170.687 88.448 171.247 88.448C171.807 88.448 172.263 88.632 172.615 89C172.967 89.352 173.143 89.784 173.143 90.296C173.143 90.808 172.967 91.248 172.615 91.616C172.263 91.984 171.807 92.168 171.247 92.168Z" fill="black"/>
<path d="M36.052 125V112.4H37.384V125H36.052ZM41.4296 125V114.362C41.4296 113.522 41.6756 112.844 42.1676 112.328C42.6596 111.812 43.3676 111.554 44.2916 111.554C44.6516 111.554 44.9996 111.602 45.3356 111.698C45.6716 111.794 45.9536 111.944 46.1816 112.148L45.7496 113.102C45.5696 112.946 45.3596 112.832 45.1196 112.76C44.8796 112.676 44.6216 112.634 44.3456 112.634C43.8056 112.634 43.3916 112.784 43.1036 113.084C42.8156 113.384 42.6716 113.828 42.6716 114.416V115.856L42.7076 116.45V125H41.4296ZM39.7376 116.612V115.55H45.5876V116.612H39.7376ZM52.0962 128.582C51.6522 128.582 51.2262 128.51 50.8182 128.366C50.4222 128.222 50.0802 128.006 49.7922 127.718L50.3862 126.764C50.6262 126.992 50.8842 127.166 51.1602 127.286C51.4482 127.418 51.7662 127.484 52.1142 127.484C52.5342 127.484 52.8942 127.364 53.1942 127.124C53.5062 126.896 53.8002 126.488 54.0762 125.9L54.6882 124.514L54.8322 124.316L58.7202 115.55H59.9802L55.2462 126.134C54.9822 126.746 54.6882 127.232 54.3642 127.592C54.0522 127.952 53.7102 128.204 53.3382 128.348C52.9662 128.504 52.5522 128.582 52.0962 128.582ZM54.6162 125.27L50.2602 115.55H51.5922L55.4442 124.226L54.6162 125.27ZM65.3684 125.09C64.4564 125.09 63.6344 124.886 62.9024 124.478C62.1824 124.058 61.6124 123.488 61.1924 122.768C60.7724 122.036 60.5624 121.202 60.5624 120.266C60.5624 119.318 60.7724 118.484 61.1924 117.764C61.6124 117.044 62.1824 116.48 62.9024 116.072C63.6224 115.664 64.4444 115.46 65.3684 115.46C66.3044 115.46 67.1324 115.664 67.8524 116.072C68.5844 116.48 69.1544 117.044 69.5624 117.764C69.9824 118.484 70.1924 119.318 70.1924 120.266C70.1924 121.202 69.9824 122.036 69.5624 122.768C69.1544 123.488 68.5844 124.058 67.8524 124.478C67.1204 124.886 66.2924 125.09 65.3684 125.09ZM65.3684 123.956C66.0524 123.956 66.6584 123.806 67.1864 123.506C67.7144 123.194 68.1284 122.762 68.4284 122.21C68.7404 121.646 68.8964 120.998 68.8964 120.266C68.8964 119.522 68.7404 118.874 68.4284 118.322C68.1284 117.77 67.7144 117.344 67.1864 117.044C66.6584 116.732 66.0584 116.576 65.3864 116.576C64.7144 116.576 64.1144 116.732 63.5864 117.044C63.0584 117.344 62.6384 117.77 62.3264 118.322C62.0144 118.874 61.8584 119.522 61.8584 120.266C61.8584 120.998 62.0144 121.646 62.3264 122.21C62.6384 122.762 63.0584 123.194 63.5864 123.506C64.1144 123.806 64.7084 123.956 65.3684 123.956ZM76.7075 125.09C75.9035 125.09 75.2015 124.94 74.6015 124.64C74.0015 124.34 73.5335 123.89 73.1975 123.29C72.8735 122.69 72.7115 121.94 72.7115 121.04V115.55H73.9895V120.896C73.9895 121.904 74.2355 122.666 74.7275 123.182C75.2315 123.686 75.9335 123.938 76.8335 123.938C77.4935 123.938 78.0635 123.806 78.5435 123.542C79.0355 123.266 79.4075 122.87 79.6595 122.354C79.9235 121.838 80.0555 121.22 80.0555 120.5V115.55H81.3335V125H80.1095V122.408L80.3075 122.876C80.0075 123.572 79.5395 124.118 78.9035 124.514C78.2795 124.898 77.5475 125.09 76.7075 125.09ZM94.4302 115.46C95.1982 115.46 95.8702 115.61 96.4462 115.91C97.0342 116.198 97.4902 116.642 97.8142 117.242C98.1502 117.842 98.3182 118.598 98.3182 119.51V125H97.0402V119.636C97.0402 118.64 96.7882 117.89 96.2842 117.386C95.7922 116.87 95.0962 116.612 94.1962 116.612C93.5242 116.612 92.9362 116.75 92.4322 117.026C91.9402 117.29 91.5562 117.68 91.2802 118.196C91.0162 118.7 90.8842 119.312 90.8842 120.032V125H89.6062V111.644H90.8842V118.142L90.6322 117.656C90.9322 116.972 91.4122 116.438 92.0722 116.054C92.7322 115.658 93.5182 115.46 94.4302 115.46ZM107.692 125V122.912L107.638 122.57V119.078C107.638 118.274 107.41 117.656 106.954 117.224C106.51 116.792 105.844 116.576 104.956 116.576C104.344 116.576 103.762 116.678 103.21 116.882C102.658 117.086 102.19 117.356 101.806 117.692L101.23 116.738C101.71 116.33 102.286 116.018 102.958 115.802C103.63 115.574 104.338 115.46 105.082 115.46C106.306 115.46 107.248 115.766 107.908 116.378C108.58 116.978 108.916 117.896 108.916 119.132V125H107.692ZM104.434 125.09C103.726 125.09 103.108 124.976 102.58 124.748C102.064 124.508 101.668 124.184 101.392 123.776C101.116 123.356 100.978 122.876 100.978 122.336C100.978 121.844 101.092 121.4 101.32 121.004C101.56 120.596 101.944 120.272 102.472 120.032C103.012 119.78 103.732 119.654 104.632 119.654H107.89V120.608H104.668C103.756 120.608 103.12 120.77 102.76 121.094C102.412 121.418 102.238 121.82 102.238 122.3C102.238 122.84 102.448 123.272 102.868 123.596C103.288 123.92 103.876 124.082 104.632 124.082C105.352 124.082 105.97 123.92 106.486 123.596C107.014 123.26 107.398 122.78 107.638 122.156L107.926 123.038C107.686 123.662 107.266 124.16 106.666 124.532C106.078 124.904 105.334 125.09 104.434 125.09ZM114.642 125L110.448 115.55H111.78L115.632 124.316H115.002L118.908 115.55H120.168L115.956 125H114.642ZM125.718 125.09C124.734 125.09 123.87 124.886 123.126 124.478C122.382 124.058 121.8 123.488 121.38 122.768C120.96 122.036 120.75 121.202 120.75 120.266C120.75 119.33 120.948 118.502 121.344 117.782C121.752 117.062 122.304 116.498 123 116.09C123.708 115.67 124.5 115.46 125.376 115.46C126.264 115.46 127.05 115.664 127.734 116.072C128.43 116.468 128.976 117.032 129.372 117.764C129.768 118.484 129.966 119.318 129.966 120.266C129.966 120.326 129.96 120.392 129.948 120.464C129.948 120.524 129.948 120.59 129.948 120.662H121.722V119.708H129.264L128.76 120.086C128.76 119.402 128.61 118.796 128.31 118.268C128.022 117.728 127.626 117.308 127.122 117.008C126.618 116.708 126.036 116.558 125.376 116.558C124.728 116.558 124.146 116.708 123.63 117.008C123.114 117.308 122.712 117.728 122.424 118.268C122.136 118.808 121.992 119.426 121.992 120.122V120.32C121.992 121.04 122.148 121.676 122.46 122.228C122.784 122.768 123.228 123.194 123.792 123.506C124.368 123.806 125.022 123.956 125.754 123.956C126.33 123.956 126.864 123.854 127.356 123.65C127.86 123.446 128.292 123.134 128.652 122.714L129.372 123.542C128.952 124.046 128.424 124.43 127.788 124.694C127.164 124.958 126.474 125.09 125.718 125.09ZM143.2 125V122.912L143.146 122.57V119.078C143.146 118.274 142.918 117.656 142.462 117.224C142.018 116.792 141.352 116.576 140.464 116.576C139.852 116.576 139.27 116.678 138.718 116.882C138.166 117.086 137.698 117.356 137.314 117.692L136.738 116.738C137.218 116.33 137.794 116.018 138.466 115.802C139.138 115.574 139.846 115.46 140.59 115.46C141.814 115.46 142.756 115.766 143.416 116.378C144.088 116.978 144.424 117.896 144.424 119.132V125H143.2ZM139.942 125.09C139.234 125.09 138.616 124.976 138.088 124.748C137.572 124.508 137.176 124.184 136.9 123.776C136.624 123.356 136.486 122.876 136.486 122.336C136.486 121.844 136.6 121.4 136.828 121.004C137.068 120.596 137.452 120.272 137.98 120.032C138.52 119.78 139.24 119.654 140.14 119.654H143.398V120.608H140.176C139.264 120.608 138.628 120.77 138.268 121.094C137.92 121.418 137.746 121.82 137.746 122.3C137.746 122.84 137.956 123.272 138.376 123.596C138.796 123.92 139.384 124.082 140.14 124.082C140.86 124.082 141.478 123.92 141.994 123.596C142.522 123.26 142.906 122.78 143.146 122.156L143.434 123.038C143.194 123.662 142.774 124.16 142.174 124.532C141.586 124.904 140.842 125.09 139.942 125.09ZM157.484 125.09C156.668 125.09 155.93 124.904 155.27 124.532C154.61 124.148 154.082 123.602 153.686 122.894C153.302 122.174 153.11 121.298 153.11 120.266C153.11 119.234 153.302 118.364 153.686 117.656C154.07 116.936 154.592 116.39 155.252 116.018C155.912 115.646 156.656 115.46 157.484 115.46C158.384 115.46 159.188 115.664 159.896 116.072C160.616 116.468 161.18 117.032 161.588 117.764C161.996 118.484 162.2 119.318 162.2 120.266C162.2 121.226 161.996 122.066 161.588 122.786C161.18 123.506 160.616 124.07 159.896 124.478C159.188 124.886 158.384 125.09 157.484 125.09ZM152.606 128.492V115.55H153.83V118.394L153.704 120.284L153.884 122.192V128.492H152.606ZM157.394 123.956C158.066 123.956 158.666 123.806 159.194 123.506C159.722 123.194 160.142 122.762 160.454 122.21C160.766 121.646 160.922 120.998 160.922 120.266C160.922 119.534 160.766 118.892 160.454 118.34C160.142 117.788 159.722 117.356 159.194 117.044C158.666 116.732 158.066 116.576 157.394 116.576C156.722 116.576 156.116 116.732 155.576 117.044C155.048 117.356 154.628 117.788 154.316 118.34C154.016 118.892 153.866 119.534 153.866 120.266C153.866 120.998 154.016 121.646 154.316 122.21C154.628 122.762 155.048 123.194 155.576 123.506C156.116 123.806 156.722 123.956 157.394 123.956ZM164.805 125V115.55H166.029V118.124L165.903 117.674C166.167 116.954 166.611 116.408 167.235 116.036C167.859 115.652 168.633 115.46 169.557 115.46V116.702C169.509 116.702 169.461 116.702 169.413 116.702C169.365 116.69 169.317 116.684 169.269 116.684C168.273 116.684 167.493 116.99 166.929 117.602C166.365 118.202 166.083 119.06 166.083 120.176V125H164.805ZM175.654 125.09C174.742 125.09 173.92 124.886 173.188 124.478C172.468 124.058 171.898 123.488 171.478 122.768C171.058 122.036 170.848 121.202 170.848 120.266C170.848 119.318 171.058 118.484 171.478 117.764C171.898 117.044 172.468 116.48 173.188 116.072C173.908 115.664 174.73 115.46 175.654 115.46C176.59 115.46 177.418 115.664 178.138 116.072C178.87 116.48 179.44 117.044 179.848 117.764C180.268 118.484 180.478 119.318 180.478 120.266C180.478 121.202 180.268 122.036 179.848 122.768C179.44 123.488 178.87 124.058 178.138 124.478C177.406 124.886 176.578 125.09 175.654 125.09ZM175.654 123.956C176.338 123.956 176.944 123.806 177.472 123.506C178 123.194 178.414 122.762 178.714 122.21C179.026 121.646 179.182 120.998 179.182 120.266C179.182 119.522 179.026 118.874 178.714 118.322C178.414 117.77 178 117.344 177.472 117.044C176.944 116.732 176.344 116.576 175.672 116.576C175 116.576 174.4 116.732 173.872 117.044C173.344 117.344 172.924 117.77 172.612 118.322C172.3 118.874 172.144 119.522 172.144 120.266C172.144 120.998 172.3 121.646 172.612 122.21C172.924 122.762 173.344 123.194 173.872 123.506C174.4 123.806 174.994 123.956 175.654 123.956ZM181.683 128.582C181.299 128.582 180.933 128.528 180.585 128.42C180.225 128.324 179.925 128.174 179.685 127.97L180.135 126.998C180.519 127.322 181.011 127.484 181.611 127.484C182.115 127.484 182.499 127.334 182.763 127.034C183.039 126.734 183.177 126.29 183.177 125.702V115.55H184.455V125.702C184.455 126.578 184.215 127.274 183.735 127.79C183.267 128.318 182.583 128.582 181.683 128.582ZM183.825 113.462C183.561 113.462 183.339 113.372 183.159 113.192C182.979 113.012 182.889 112.796 182.889 112.544C182.889 112.292 182.979 112.082 183.159 111.914C183.339 111.734 183.561 111.644 183.825 111.644C184.089 111.644 184.311 111.728 184.491 111.896C184.671 112.064 184.761 112.274 184.761 112.526C184.761 112.79 184.671 113.012 184.491 113.192C184.323 113.372 184.101 113.462 183.825 113.462ZM192.04 125.09C191.056 125.09 190.192 124.886 189.448 124.478C188.704 124.058 188.122 123.488 187.702 122.768C187.282 122.036 187.072 121.202 187.072 120.266C187.072 119.33 187.27 118.502 187.666 117.782C188.074 117.062 188.626 116.498 189.322 116.09C190.03 115.67 190.822 115.46 191.698 115.46C192.586 115.46 193.372 115.664 194.056 116.072C194.752 116.468 195.298 117.032 195.694 117.764C196.09 118.484 196.288 119.318 196.288 120.266C196.288 120.326 196.282 120.392 196.27 120.464C196.27 120.524 196.27 120.59 196.27 120.662H188.044V119.708H195.586L195.082 120.086C195.082 119.402 194.932 118.796 194.632 118.268C194.344 117.728 193.948 117.308 193.444 117.008C192.94 116.708 192.358 116.558 191.698 116.558C191.05 116.558 190.468 116.708 189.952 117.008C189.436 117.308 189.034 117.728 188.746 118.268C188.458 118.808 188.314 119.426 188.314 120.122V120.32C188.314 121.04 188.47 121.676 188.782 122.228C189.106 122.768 189.55 123.194 190.114 123.506C190.69 123.806 191.344 123.956 192.076 123.956C192.652 123.956 193.186 123.854 193.678 123.65C194.182 123.446 194.614 123.134 194.974 122.714L195.694 123.542C195.274 124.046 194.746 124.43 194.11 124.694C193.486 124.958 192.796 125.09 192.04 125.09ZM202.813 125.09C201.877 125.09 201.037 124.886 200.293 124.478C199.561 124.058 198.985 123.488 198.565 122.768C198.145 122.036 197.935 121.202 197.935 120.266C197.935 119.318 198.145 118.484 198.565 117.764C198.985 117.044 199.561 116.48 200.293 116.072C201.037 115.664 201.877 115.46 202.813 115.46C203.617 115.46 204.343 115.616 204.991 115.928C205.639 116.24 206.149 116.708 206.521 117.332L205.567 117.98C205.243 117.5 204.841 117.146 204.361 116.918C203.881 116.69 203.359 116.576 202.795 116.576C202.123 116.576 201.517 116.732 200.977 117.044C200.437 117.344 200.011 117.77 199.699 118.322C199.387 118.874 199.231 119.522 199.231 120.266C199.231 121.01 199.387 121.658 199.699 122.21C200.011 122.762 200.437 123.194 200.977 123.506C201.517 123.806 202.123 123.956 202.795 123.956C203.359 123.956 203.881 123.842 204.361 123.614C204.841 123.386 205.243 123.038 205.567 122.57L206.521 123.218C206.149 123.83 205.639 124.298 204.991 124.622C204.343 124.934 203.617 125.09 202.813 125.09ZM212.125 125.09C211.237 125.09 210.553 124.85 210.073 124.37C209.593 123.89 209.353 123.212 209.353 122.336V113.462H210.631V122.264C210.631 122.816 210.769 123.242 211.045 123.542C211.333 123.842 211.741 123.992 212.269 123.992C212.833 123.992 213.301 123.83 213.673 123.506L214.123 124.424C213.871 124.652 213.565 124.82 213.205 124.928C212.857 125.036 212.497 125.09 212.125 125.09ZM207.661 116.612V115.55H213.511V116.612H207.661ZM224.149 125.09C223.261 125.09 222.577 124.85 222.097 124.37C221.617 123.89 221.377 123.212 221.377 122.336V113.462H222.655V122.264C222.655 122.816 222.793 123.242 223.069 123.542C223.357 123.842 223.765 123.992 224.293 123.992C224.857 123.992 225.325 123.83 225.697 123.506L226.147 124.424C225.895 124.652 225.589 124.82 225.229 124.928C224.881 125.036 224.521 125.09 224.149 125.09ZM219.685 116.612V115.55H225.535V116.612H219.685ZM233.297 115.46C234.065 115.46 234.737 115.61 235.313 115.91C235.901 116.198 236.357 116.642 236.681 117.242C237.017 117.842 237.185 118.598 237.185 119.51V125H235.907V119.636C235.907 118.64 235.655 117.89 235.151 117.386C234.659 116.87 233.963 116.612 233.063 116.612C232.391 116.612 231.803 116.75 231.299 117.026C230.807 117.29 230.423 117.68 230.147 118.196C229.883 118.7 229.751 119.312 229.751 120.032V125H228.473V111.644H229.751V118.142L229.499 117.656C229.799 116.972 230.279 116.438 230.939 116.054C231.599 115.658 232.385 115.46 233.297 115.46ZM246.559 125V122.912L246.505 122.57V119.078C246.505 118.274 246.277 117.656 245.821 117.224C245.377 116.792 244.711 116.576 243.823 116.576C243.211 116.576 242.629 116.678 242.077 116.882C241.525 117.086 241.057 117.356 240.673 117.692L240.097 116.738C240.577 116.33 241.153 116.018 241.825 115.802C242.497 115.574 243.205 115.46 243.949 115.46C245.173 115.46 246.115 115.766 246.775 116.378C247.447 116.978 247.783 117.896 247.783 119.132V125H246.559ZM243.301 125.09C242.593 125.09 241.975 124.976 241.447 124.748C240.931 124.508 240.535 124.184 240.259 123.776C239.983 123.356 239.845 122.876 239.845 122.336C239.845 121.844 239.959 121.4 240.187 121.004C240.427 120.596 240.811 120.272 241.339 120.032C241.879 119.78 242.599 119.654 243.499 119.654H246.757V120.608H243.535C242.623 120.608 241.987 120.77 241.627 121.094C241.279 121.418 241.105 121.82 241.105 122.3C241.105 122.84 241.315 123.272 241.735 123.596C242.155 123.92 242.743 124.082 243.499 124.082C244.219 124.082 244.837 123.92 245.353 123.596C245.881 123.26 246.265 122.78 246.505 122.156L246.793 123.038C246.553 123.662 246.133 124.16 245.533 124.532C244.945 124.904 244.201 125.09 243.301 125.09ZM254.243 125.09C253.355 125.09 252.671 124.85 252.191 124.37C251.711 123.89 251.471 123.212 251.471 122.336V113.462H252.749V122.264C252.749 122.816 252.887 123.242 253.163 123.542C253.451 123.842 253.859 123.992 254.387 123.992C254.951 123.992 255.419 123.83 255.791 123.506L256.241 124.424C255.989 124.652 255.683 124.82 255.323 124.928C254.975 125.036 254.615 125.09 254.243 125.09ZM249.779 116.612V115.55H255.629V116.612H249.779ZM40.606 137.46C41.374 137.46 42.046 137.61 42.622 137.91C43.21 138.198 43.666 138.642 43.99 139.242C44.326 139.842 44.494 140.598 44.494 141.51V147H43.216V141.636C43.216 140.64 42.964 139.89 42.46 139.386C41.968 138.87 41.272 138.612 40.372 138.612C39.7 138.612 39.112 138.75 38.608 139.026C38.116 139.29 37.732 139.68 37.456 140.196C37.192 140.7 37.06 141.312 37.06 142.032V147H35.782V137.55H37.006V140.142L36.808 139.656C37.108 138.972 37.588 138.438 38.248 138.054C38.908 137.658 39.694 137.46 40.606 137.46ZM51.9601 147.09C50.9761 147.09 50.1121 146.886 49.3681 146.478C48.6241 146.058 48.0421 145.488 47.6221 144.768C47.2021 144.036 46.9921 143.202 46.9921 142.266C46.9921 141.33 47.1901 140.502 47.5861 139.782C47.9941 139.062 48.5461 138.498 49.2421 138.09C49.9501 137.67 50.7421 137.46 51.6181 137.46C52.5061 137.46 53.2921 137.664 53.9761 138.072C54.6721 138.468 55.2181 139.032 55.6141 139.764C56.0101 140.484 56.2081 141.318 56.2081 142.266C56.2081 142.326 56.2021 142.392 56.1901 142.464C56.1901 142.524 56.1901 142.59 56.1901 142.662H47.9641V141.708H55.5061L55.0021 142.086C55.0021 141.402 54.8521 140.796 54.5521 140.268C54.2641 139.728 53.8681 139.308 53.3641 139.008C52.8601 138.708 52.2781 138.558 51.6181 138.558C50.9701 138.558 50.3881 138.708 49.8721 139.008C49.3561 139.308 48.9541 139.728 48.6661 140.268C48.3781 140.808 48.2341 141.426 48.2341 142.122V142.32C48.2341 143.04 48.3901 143.676 48.7021 144.228C49.0261 144.768 49.4701 145.194 50.0341 145.506C50.6101 145.806 51.2641 145.956 51.9961 145.956C52.5721 145.956 53.1061 145.854 53.5981 145.65C54.1021 145.446 54.5341 145.134 54.8941 144.714L55.6141 145.542C55.1941 146.046 54.6661 146.43 54.0301 146.694C53.4061 146.958 52.7161 147.09 51.9601 147.09ZM62.8233 147.09C61.8393 147.09 60.9753 146.886 60.2313 146.478C59.4873 146.058 58.9053 145.488 58.4853 144.768C58.0653 144.036 57.8553 143.202 57.8553 142.266C57.8553 141.33 58.0533 140.502 58.4493 139.782C58.8573 139.062 59.4093 138.498 60.1053 138.09C60.8133 137.67 61.6053 137.46 62.4813 137.46C63.3693 137.46 64.1553 137.664 64.8393 138.072C65.5353 138.468 66.0813 139.032 66.4773 139.764C66.8733 140.484 67.0713 141.318 67.0713 142.266C67.0713 142.326 67.0653 142.392 67.0533 142.464C67.0533 142.524 67.0533 142.59 67.0533 142.662H58.8273V141.708H66.3693L65.8653 142.086C65.8653 141.402 65.7153 140.796 65.4153 140.268C65.1273 139.728 64.7313 139.308 64.2273 139.008C63.7233 138.708 63.1413 138.558 62.4813 138.558C61.8333 138.558 61.2513 138.708 60.7353 139.008C60.2193 139.308 59.8173 139.728 59.5293 140.268C59.2413 140.808 59.0973 141.426 59.0973 142.122V142.32C59.0973 143.04 59.2533 143.676 59.5653 144.228C59.8893 144.768 60.3333 145.194 60.8973 145.506C61.4733 145.806 62.1273 145.956 62.8593 145.956C63.4353 145.956 63.9693 145.854 64.4613 145.65C64.9653 145.446 65.3973 145.134 65.7573 144.714L66.4773 145.542C66.0573 146.046 65.5293 146.43 64.8933 146.694C64.2693 146.958 63.5793 147.09 62.8233 147.09ZM73.4346 147.09C72.5346 147.09 71.7246 146.886 71.0046 146.478C70.2966 146.07 69.7386 145.506 69.3306 144.786C68.9226 144.054 68.7186 143.214 68.7186 142.266C68.7186 141.306 68.9226 140.466 69.3306 139.746C69.7386 139.026 70.2966 138.468 71.0046 138.072C71.7246 137.664 72.5346 137.46 73.4346 137.46C74.2626 137.46 75.0006 137.646 75.6486 138.018C76.3086 138.39 76.8306 138.936 77.2146 139.656C77.6106 140.364 77.8086 141.234 77.8086 142.266C77.8086 143.286 77.6166 144.156 77.2326 144.876C76.8486 145.596 76.3266 146.148 75.6666 146.532C75.0186 146.904 74.2746 147.09 73.4346 147.09ZM73.5246 145.956C74.1966 145.956 74.7966 145.806 75.3246 145.506C75.8646 145.194 76.2846 144.762 76.5846 144.21C76.8966 143.646 77.0526 142.998 77.0526 142.266C77.0526 141.522 76.8966 140.874 76.5846 140.322C76.2846 139.77 75.8646 139.344 75.3246 139.044C74.7966 138.732 74.1966 138.576 73.5246 138.576C72.8646 138.576 72.2706 138.732 71.7426 139.044C71.2146 139.344 70.7946 139.77 70.4826 140.322C70.1706 140.874 70.0146 141.522 70.0146 142.266C70.0146 142.998 70.1706 143.646 70.4826 144.21C70.7946 144.762 71.2146 145.194 71.7426 145.506C72.2706 145.806 72.8646 145.956 73.5246 145.956ZM77.0886 147V144.156L77.2146 142.248L77.0346 140.34V133.644H78.3126V147H77.0886ZM84.4098 147.09C83.6298 147.09 82.8918 146.982 82.1958 146.766C81.4998 146.538 80.9538 146.256 80.5578 145.92L81.1338 144.912C81.5178 145.2 82.0098 145.452 82.6098 145.668C83.2098 145.872 83.8398 145.974 84.4998 145.974C85.3998 145.974 86.0478 145.836 86.4438 145.56C86.8398 145.272 87.0378 144.894 87.0378 144.426C87.0378 144.078 86.9238 143.808 86.6958 143.616C86.4798 143.412 86.1918 143.262 85.8318 143.166C85.4718 143.058 85.0698 142.968 84.6258 142.896C84.1818 142.824 83.7378 142.74 83.2938 142.644C82.8618 142.548 82.4658 142.41 82.1058 142.23C81.7458 142.038 81.4518 141.78 81.2238 141.456C81.0078 141.132 80.8998 140.7 80.8998 140.16C80.8998 139.644 81.0438 139.182 81.3318 138.774C81.6198 138.366 82.0398 138.048 82.5918 137.82C83.1558 137.58 83.8398 137.46 84.6438 137.46C85.2558 137.46 85.8678 137.544 86.4798 137.712C87.0918 137.868 87.5958 138.078 87.9918 138.342L87.4338 139.368C87.0138 139.08 86.5638 138.876 86.0838 138.756C85.6038 138.624 85.1238 138.558 84.6438 138.558C83.7918 138.558 83.1618 138.708 82.7538 139.008C82.3578 139.296 82.1598 139.668 82.1598 140.124C82.1598 140.484 82.2678 140.766 82.4838 140.97C82.7118 141.174 83.0058 141.336 83.3658 141.456C83.7378 141.564 84.1398 141.654 84.5718 141.726C85.0158 141.798 85.4538 141.888 85.8858 141.996C86.3298 142.092 86.7318 142.23 87.0918 142.41C87.4638 142.578 87.7578 142.824 87.9738 143.148C88.2018 143.46 88.3158 143.874 88.3158 144.39C88.3158 144.942 88.1598 145.422 87.8478 145.83C87.5478 146.226 87.1038 146.538 86.5158 146.766C85.9398 146.982 85.2378 147.09 84.4098 147.09ZM97.8018 147L93.6078 137.55H94.9398L98.7918 146.316H98.1618L102.068 137.55H103.328L99.1158 147H97.8018ZM108.716 147.09C107.804 147.09 106.982 146.886 106.25 146.478C105.53 146.058 104.96 145.488 104.54 144.768C104.12 144.036 103.91 143.202 103.91 142.266C103.91 141.318 104.12 140.484 104.54 139.764C104.96 139.044 105.53 138.48 106.25 138.072C106.97 137.664 107.792 137.46 108.716 137.46C109.652 137.46 110.48 137.664 111.2 138.072C111.932 138.48 112.502 139.044 112.91 139.764C113.33 140.484 113.54 141.318 113.54 142.266C113.54 143.202 113.33 144.036 112.91 144.768C112.502 145.488 111.932 146.058 111.2 146.478C110.468 146.886 109.64 147.09 108.716 147.09ZM108.716 145.956C109.4 145.956 110.006 145.806 110.534 145.506C111.062 145.194 111.476 144.762 111.776 144.21C112.088 143.646 112.244 142.998 112.244 142.266C112.244 141.522 112.088 140.874 111.776 140.322C111.476 139.77 111.062 139.344 110.534 139.044C110.006 138.732 109.406 138.576 108.734 138.576C108.062 138.576 107.462 138.732 106.934 139.044C106.406 139.344 105.986 139.77 105.674 140.322C105.362 140.874 105.206 141.522 105.206 142.266C105.206 142.998 105.362 143.646 105.674 144.21C105.986 144.762 106.406 145.194 106.934 145.506C107.462 145.806 108.056 145.956 108.716 145.956ZM116.149 147V133.644H117.427V147H116.149ZM124.889 147.09C124.085 147.09 123.383 146.94 122.783 146.64C122.183 146.34 121.715 145.89 121.379 145.29C121.055 144.69 120.893 143.94 120.893 143.04V137.55H122.171V142.896C122.171 143.904 122.417 144.666 122.909 145.182C123.413 145.686 124.115 145.938 125.015 145.938C125.675 145.938 126.245 145.806 126.725 145.542C127.217 145.266 127.589 144.87 127.841 144.354C128.105 143.838 128.237 143.22 128.237 142.5V137.55H129.515V147H128.291V144.408L128.489 144.876C128.189 145.572 127.721 146.118 127.085 146.514C126.461 146.898 125.729 147.09 124.889 147.09ZM137.901 137.46C138.669 137.46 139.341 137.61 139.917 137.91C140.505 138.198 140.961 138.642 141.285 139.242C141.621 139.842 141.789 140.598 141.789 141.51V147H140.511V141.636C140.511 140.64 140.259 139.89 139.755 139.386C139.263 138.87 138.567 138.612 137.667 138.612C136.995 138.612 136.407 138.75 135.903 139.026C135.411 139.29 135.027 139.68 134.751 140.196C134.487 140.7 134.355 141.312 134.355 142.032V147H133.077V137.55H134.301V140.142L134.103 139.656C134.403 138.972 134.883 138.438 135.543 138.054C136.203 137.658 136.989 137.46 137.901 137.46ZM148.229 147.09C147.341 147.09 146.657 146.85 146.177 146.37C145.697 145.89 145.457 145.212 145.457 144.336V135.462H146.735V144.264C146.735 144.816 146.873 145.242 147.149 145.542C147.437 145.842 147.845 145.992 148.373 145.992C148.937 145.992 149.405 145.83 149.777 145.506L150.227 146.424C149.975 146.652 149.669 146.82 149.309 146.928C148.961 147.036 148.601 147.09 148.229 147.09ZM143.765 138.612V137.55H149.615V138.612H143.765ZM156.234 147.09C155.25 147.09 154.386 146.886 153.642 146.478C152.898 146.058 152.316 145.488 151.896 144.768C151.476 144.036 151.266 143.202 151.266 142.266C151.266 141.33 151.464 140.502 151.86 139.782C152.268 139.062 152.82 138.498 153.516 138.09C154.224 137.67 155.016 137.46 155.892 137.46C156.78 137.46 157.566 137.664 158.25 138.072C158.946 138.468 159.492 139.032 159.888 139.764C160.284 140.484 160.482 141.318 160.482 142.266C160.482 142.326 160.476 142.392 160.464 142.464C160.464 142.524 160.464 142.59 160.464 142.662H152.238V141.708H159.78L159.276 142.086C159.276 141.402 159.126 140.796 158.826 140.268C158.538 139.728 158.142 139.308 157.638 139.008C157.134 138.708 156.552 138.558 155.892 138.558C155.244 138.558 154.662 138.708 154.146 139.008C153.63 139.308 153.228 139.728 152.94 140.268C152.652 140.808 152.508 141.426 152.508 142.122V142.32C152.508 143.04 152.664 143.676 152.976 144.228C153.3 144.768 153.744 145.194 154.308 145.506C154.884 145.806 155.538 145.956 156.27 145.956C156.846 145.956 157.38 145.854 157.872 145.65C158.376 145.446 158.808 145.134 159.168 144.714L159.888 145.542C159.468 146.046 158.94 146.43 158.304 146.694C157.68 146.958 156.99 147.09 156.234 147.09ZM167.097 147.09C166.113 147.09 165.249 146.886 164.505 146.478C163.761 146.058 163.179 145.488 162.759 144.768C162.339 144.036 162.129 143.202 162.129 142.266C162.129 141.33 162.327 140.502 162.723 139.782C163.131 139.062 163.683 138.498 164.379 138.09C165.087 137.67 165.879 137.46 166.755 137.46C167.643 137.46 168.429 137.664 169.113 138.072C169.809 138.468 170.355 139.032 170.751 139.764C171.147 140.484 171.345 141.318 171.345 142.266C171.345 142.326 171.339 142.392 171.327 142.464C171.327 142.524 171.327 142.59 171.327 142.662H163.101V141.708H170.643L170.139 142.086C170.139 141.402 169.989 140.796 169.689 140.268C169.401 139.728 169.005 139.308 168.501 139.008C167.997 138.708 167.415 138.558 166.755 138.558C166.107 138.558 165.525 138.708 165.009 139.008C164.493 139.308 164.091 139.728 163.803 140.268C163.515 140.808 163.371 141.426 163.371 142.122V142.32C163.371 143.04 163.527 143.676 163.839 144.228C164.163 144.768 164.607 145.194 165.171 145.506C165.747 145.806 166.401 145.956 167.133 145.956C167.709 145.956 168.243 145.854 168.735 145.65C169.239 145.446 169.671 145.134 170.031 144.714L170.751 145.542C170.331 146.046 169.803 146.43 169.167 146.694C168.543 146.958 167.853 147.09 167.097 147.09ZM173.946 147V137.55H175.17V140.124L175.044 139.674C175.308 138.954 175.752 138.408 176.376 138.036C177 137.652 177.774 137.46 178.698 137.46V138.702C178.65 138.702 178.602 138.702 178.554 138.702C178.506 138.69 178.458 138.684 178.41 138.684C177.414 138.684 176.634 138.99 176.07 139.602C175.506 140.202 175.224 141.06 175.224 142.176V147H173.946ZM183.674 147.09C182.894 147.09 182.156 146.982 181.46 146.766C180.764 146.538 180.218 146.256 179.822 145.92L180.398 144.912C180.782 145.2 181.274 145.452 181.874 145.668C182.474 145.872 183.104 145.974 183.764 145.974C184.664 145.974 185.312 145.836 185.708 145.56C186.104 145.272 186.302 144.894 186.302 144.426C186.302 144.078 186.188 143.808 185.96 143.616C185.744 143.412 185.456 143.262 185.096 143.166C184.736 143.058 184.334 142.968 183.89 142.896C183.446 142.824 183.002 142.74 182.558 142.644C182.126 142.548 181.73 142.41 181.37 142.23C181.01 142.038 180.716 141.78 180.488 141.456C180.272 141.132 180.164 140.7 180.164 140.16C180.164 139.644 180.308 139.182 180.596 138.774C180.884 138.366 181.304 138.048 181.856 137.82C182.42 137.58 183.104 137.46 183.908 137.46C184.52 137.46 185.132 137.544 185.744 137.712C186.356 137.868 186.86 138.078 187.256 138.342L186.698 139.368C186.278 139.08 185.828 138.876 185.348 138.756C184.868 138.624 184.388 138.558 183.908 138.558C183.056 138.558 182.426 138.708 182.018 139.008C181.622 139.296 181.424 139.668 181.424 140.124C181.424 140.484 181.532 140.766 181.748 140.97C181.976 141.174 182.27 141.336 182.63 141.456C183.002 141.564 183.404 141.654 183.836 141.726C184.28 141.798 184.718 141.888 185.15 141.996C185.594 142.092 185.996 142.23 186.356 142.41C186.728 142.578 187.022 142.824 187.238 143.148C187.466 143.46 187.58 143.874 187.58 144.39C187.58 144.942 187.424 145.422 187.112 145.83C186.812 146.226 186.368 146.538 185.78 146.766C185.204 146.982 184.502 147.09 183.674 147.09ZM189.151 149.628L189.943 146.298L190.087 147.072C189.811 147.072 189.577 146.982 189.385 146.802C189.205 146.622 189.115 146.388 189.115 146.1C189.115 145.812 189.205 145.578 189.385 145.398C189.577 145.218 189.805 145.128 190.069 145.128C190.345 145.128 190.567 145.224 190.735 145.416C190.915 145.608 191.005 145.836 191.005 146.1C191.005 146.196 190.999 146.292 190.987 146.388C190.975 146.484 190.951 146.592 190.915 146.712C190.879 146.832 190.831 146.976 190.771 147.144L190.015 149.628H189.151ZM200.988 147.09C200.208 147.09 199.47 146.982 198.774 146.766C198.078 146.538 197.532 146.256 197.136 145.92L197.712 144.912C198.096 145.2 198.588 145.452 199.188 145.668C199.788 145.872 200.418 145.974 201.078 145.974C201.978 145.974 202.626 145.836 203.022 145.56C203.418 145.272 203.616 144.894 203.616 144.426C203.616 144.078 203.502 143.808 203.274 143.616C203.058 143.412 202.77 143.262 202.41 143.166C202.05 143.058 201.648 142.968 201.204 142.896C200.76 142.824 200.316 142.74 199.872 142.644C199.44 142.548 199.044 142.41 198.684 142.23C198.324 142.038 198.03 141.78 197.802 141.456C197.586 141.132 197.478 140.7 197.478 140.16C197.478 139.644 197.622 139.182 197.91 138.774C198.198 138.366 198.618 138.048 199.17 137.82C199.734 137.58 200.418 137.46 201.222 137.46C201.834 137.46 202.446 137.544 203.058 137.712C203.67 137.868 204.174 138.078 204.57 138.342L204.012 139.368C203.592 139.08 203.142 138.876 202.662 138.756C202.182 138.624 201.702 138.558 201.222 138.558C200.37 138.558 199.74 138.708 199.332 139.008C198.936 139.296 198.738 139.668 198.738 140.124C198.738 140.484 198.846 140.766 199.062 140.97C199.29 141.174 199.584 141.336 199.944 141.456C200.316 141.564 200.718 141.654 201.15 141.726C201.594 141.798 202.032 141.888 202.464 141.996C202.908 142.092 203.31 142.23 203.67 142.41C204.042 142.578 204.336 142.824 204.552 143.148C204.78 143.46 204.894 143.874 204.894 144.39C204.894 144.942 204.738 145.422 204.426 145.83C204.126 146.226 203.682 146.538 203.094 146.766C202.518 146.982 201.816 147.09 200.988 147.09ZM207.239 147V137.55H208.517V147H207.239ZM207.887 135.462C207.623 135.462 207.401 135.372 207.221 135.192C207.041 135.012 206.951 134.796 206.951 134.544C206.951 134.292 207.041 134.082 207.221 133.914C207.401 133.734 207.623 133.644 207.887 133.644C208.151 133.644 208.373 133.728 208.553 133.896C208.733 134.064 208.823 134.274 208.823 134.526C208.823 134.79 208.733 135.012 208.553 135.192C208.385 135.372 208.163 135.462 207.887 135.462ZM216.105 150.582C215.241 150.582 214.413 150.456 213.621 150.204C212.829 149.952 212.187 149.592 211.695 149.124L212.343 148.152C212.787 148.548 213.333 148.86 213.981 149.088C214.641 149.328 215.337 149.448 216.069 149.448C217.269 149.448 218.151 149.166 218.715 148.602C219.279 148.05 219.561 147.186 219.561 146.01V143.652L219.741 142.032L219.615 140.412V137.55H220.839V145.848C220.839 147.48 220.437 148.674 219.633 149.43C218.841 150.198 217.665 150.582 216.105 150.582ZM215.871 146.64C214.971 146.64 214.161 146.448 213.441 146.064C212.721 145.668 212.151 145.122 211.731 144.426C211.323 143.73 211.119 142.932 211.119 142.032C211.119 141.132 211.323 140.34 211.731 139.656C212.151 138.96 212.721 138.42 213.441 138.036C214.161 137.652 214.971 137.46 215.871 137.46C216.711 137.46 217.467 137.634 218.139 137.982C218.811 138.33 219.345 138.846 219.741 139.53C220.137 140.214 220.335 141.048 220.335 142.032C220.335 143.016 220.137 143.85 219.741 144.534C219.345 145.218 218.811 145.74 218.139 146.1C217.467 146.46 216.711 146.64 215.871 146.64ZM215.997 145.506C216.693 145.506 217.311 145.362 217.851 145.074C218.391 144.774 218.817 144.366 219.129 143.85C219.441 143.322 219.597 142.716 219.597 142.032C219.597 141.348 219.441 140.748 219.129 140.232C218.817 139.716 218.391 139.314 217.851 139.026C217.311 138.726 216.693 138.576 215.997 138.576C215.313 138.576 214.695 138.726 214.143 139.026C213.603 139.314 213.177 139.716 212.865 140.232C212.565 140.748 212.415 141.348 212.415 142.032C212.415 142.716 212.565 143.322 212.865 143.85C213.177 144.366 213.603 144.774 214.143 145.074C214.695 145.362 215.313 145.506 215.997 145.506ZM229.219 137.46C229.987 137.46 230.659 137.61 231.235 137.91C231.823 138.198 232.279 138.642 232.603 139.242C232.939 139.842 233.107 140.598 233.107 141.51V147H231.829V141.636C231.829 140.64 231.577 139.89 231.073 139.386C230.581 138.87 229.885 138.612 228.985 138.612C228.313 138.612 227.725 138.75 227.221 139.026C226.729 139.29 226.345 139.68 226.069 140.196C225.805 140.7 225.673 141.312 225.673 142.032V147H224.395V137.55H225.619V140.142L225.421 139.656C225.721 138.972 226.201 138.438 226.861 138.054C227.521 137.658 228.307 137.46 229.219 137.46ZM245.176 147.09C244.372 147.09 243.67 146.94 243.07 146.64C242.47 146.34 242.002 145.89 241.666 145.29C241.342 144.69 241.18 143.94 241.18 143.04V137.55H242.458V142.896C242.458 143.904 242.704 144.666 243.196 145.182C243.7 145.686 244.402 145.938 245.302 145.938C245.962 145.938 246.532 145.806 247.012 145.542C247.504 145.266 247.876 144.87 248.128 144.354C248.392 143.838 248.524 143.22 248.524 142.5V137.55H249.802V147H248.578V144.408L248.776 144.876C248.476 145.572 248.008 146.118 247.372 146.514C246.748 146.898 246.016 147.09 245.176 147.09ZM258.242 147.09C257.426 147.09 256.688 146.904 256.028 146.532C255.368 146.148 254.84 145.602 254.444 144.894C254.06 144.174 253.868 143.298 253.868 142.266C253.868 141.234 254.06 140.364 254.444 139.656C254.828 138.936 255.35 138.39 256.01 138.018C256.67 137.646 257.414 137.46 258.242 137.46C259.142 137.46 259.946 137.664 260.654 138.072C261.374 138.468 261.938 139.032 262.346 139.764C262.754 140.484 262.958 141.318 262.958 142.266C262.958 143.226 262.754 144.066 262.346 144.786C261.938 145.506 261.374 146.07 260.654 146.478C259.946 146.886 259.142 147.09 258.242 147.09ZM253.364 150.492V137.55H254.588V140.394L254.462 142.284L254.642 144.192V150.492H253.364ZM258.152 145.956C258.824 145.956 259.424 145.806 259.952 145.506C260.48 145.194 260.9 144.762 261.212 144.21C261.524 143.646 261.68 142.998 261.68 142.266C261.68 141.534 261.524 140.892 261.212 140.34C260.9 139.788 260.48 139.356 259.952 139.044C259.424 138.732 258.824 138.576 258.152 138.576C257.48 138.576 256.874 138.732 256.334 139.044C255.806 139.356 255.386 139.788 255.074 140.34C254.774 140.892 254.624 141.534 254.624 142.266C254.624 142.998 254.774 143.646 255.074 144.21C255.386 144.762 255.806 145.194 256.334 145.506C256.874 145.806 257.48 145.956 258.152 145.956Z" fill="#696969"/>
</svg>
